<?xml version="1.0" encoding="UTF-8"?>
<svg width="32px" height="32px" viewBox="0 0 32 32" version="1.1" xmlns="http://www.w3.org/2000/svg" xmlns:xlink="http://www.w3.org/1999/xlink">
    <title>编组 2</title>
    <g id="页面-1" stroke="none" stroke-width="1" fill="none" fill-rule="evenodd">
        <g id="B-平台产品线产品介绍" transform="translate(-944.000000, -1809.000000)" fill="#147BD1" fill-rule="nonzero">
            <g id="解决方案" transform="translate(360.000000, 1732.000000)">
                <g id="编组-6" transform="translate(420.000000, 61.000000)">
                    <g id="编组" transform="translate(164.000000, 16.000000)">
                        <path d="M22.2,16.6 C21.2,17.6 20,18.4 18.6,18.8 L18,20 L14,20 L13.4,18.6 C12,18.2 10.8,17.4 9.79999997,16.4 L8.39999998,16.6 L6.39999998,13.2 L7.39999998,12 C6.99999998,11.4 6.99999998,10.8 6.99999998,10 C6.99999998,9.19999997 6.99999998,8.59999997 7.2,7.8 L6.39999998,6.79999997 L8.39999998,3.39999998 L9.79999997,3.6 C10.8,2.60000002 12,1.8 13.4,1.39999997 L14,1.77635684e-15 L18,1.77635684e-15 L18.6,1.39999997 C20,1.79999995 21.2,2.59999997 22.2,3.6 L23.6,3.39999998 L25.6,6.79999997 L24.6,8 C24.8,8.59999997 24.8,9.39999998 24.8,10.2 C24.7999999,11 24.8,11.6 24.6,12.4 L25.6,13.6 L23.6,17 L22.2,16.6 L22.2,16.6 Z M22,26.8 L22,32 L18,32 L18,23.8 C23.6,22.8 28,18 28,12 L32,12 C32,18.8 27.8,24.4 22,26.8 L22,26.8 Z M10,26.8 C4.2,24.4 1.77635684e-15,18.6 1.77635684e-15,12 L4,12 C4,18 8.4,22.8 14,23.8 L14,32 L10,32 L10,26.8 L10,26.8 Z M16,16 C19.4,16 22,13.4 22,9.99999998 C22,6.6 19.4,3.99999998 16,3.99999998 C12.6,3.99999998 9.99999998,6.6 9.99999998,9.99999998 C9.99999998,13.4 12.6,16 16,16 Z M16,12 C14.8,12 14,11.2 14,9.99999997 C14,8.79999998 14.8,7.99999997 16,7.99999997 C17.2,7.99999997 18,8.79999998 18,9.99999997 C18,11.2 17.2,12 16,12 L16,12 Z" id="形状"></path>
                    </g>
                </g>
            </g>
        </g>
    </g>
</svg>