<?xml version="1.0" encoding="UTF-8"?>
<svg width="48px" height="48px" viewBox="0 0 48 48" version="1.1" xmlns="http://www.w3.org/2000/svg" xmlns:xlink="http://www.w3.org/1999/xlink">
    <title>icon</title>
    <g id="页面-1" stroke="none" stroke-width="1" fill="none" fill-rule="evenodd">
        <g id="B-平台产品线产品介绍" transform="translate(-936.000000, -2338.000000)">
            <g id="核心能力" transform="translate(0.000000, 2186.000000)">
                <g id="多云连通" transform="translate(790.000000, 152.000000)">
                    <g id="icon" transform="translate(146.000000, 0.000000)">
                        <rect id="矩形" stroke="#979797" fill="#D8D8D8" opacity="0" x="0" y="0" width="48" height="48"></rect>
                        <path d="M40,20.72 C40,18.908 38.532,17.44 36.72,17.44 C36.156,17.44 35.624,17.584 35.164,17.832 L27.62,12.084 C27.684,11.828 27.72,11.56 27.72,11.28 C27.72,9.468 26.252,8 24.44,8 C22.628,8 21.16,9.468 21.16,11.28 C21.16,11.492 21.18,11.7 21.22,11.9 L13.168,18.04 C12.636,17.664 11.984,17.44 11.28,17.44 C9.468,17.44 8,18.908 8,20.72 C8,22.36 9.2,23.716 10.772,23.96 L14.196,35.02 C13.896,35.516 13.72,36.096 13.72,36.72 C13.72,38.532 15.188,40 17,40 C18.144,40 19.152,39.412 19.736,38.528 L30.06,38.528 C30.648,39.416 31.652,40 32.796,40 C34.608,40 36.076,38.532 36.076,36.72 C36.076,35.62 35.532,34.644 34.7,34.052 L37.876,23.788 C39.12,23.316 40,22.12 40,20.72 Z M29.608,35.968 L20.192,35.968 C19.852,34.52 18.552,33.44 17,33.44 C16.796,33.44 16.596,33.46 16.404,33.496 L13.26,23.336 C14.052,22.736 14.564,21.788 14.564,20.72 C14.564,20.552 14.552,20.388 14.528,20.224 L22.656,14.028 C23.172,14.364 23.784,14.56 24.448,14.56 C25.044,14.56 25.6,14.4 26.084,14.124 L33.572,19.832 C33.492,20.116 33.448,20.412 33.448,20.72 C33.448,22 34.184,23.108 35.252,23.648 L32.204,33.496 C30.92,33.732 29.904,34.712 29.608,35.968 Z" id="形状" fill="#147BD1" fill-rule="nonzero"></path>
                    </g>
                </g>
            </g>
        </g>
    </g>
</svg>