<?xml version="1.0" encoding="UTF-8"?>
<svg width="48px" height="48px" viewBox="0 0 48 48" version="1.1" xmlns="http://www.w3.org/2000/svg" xmlns:xlink="http://www.w3.org/1999/xlink">
    <title>icon</title>
    <g id="页面-1" stroke="none" stroke-width="1" fill="none" fill-rule="evenodd">
        <g id="B-平台产品线产品介绍" transform="translate(-536.000000, -2498.000000)">
            <g id="核心能力" transform="translate(0.000000, 2186.000000)">
                <g id="统一运维" transform="translate(390.000000, 312.000000)">
                    <g id="icon" transform="translate(146.000000, 0.000000)">
                        <rect id="矩形" stroke="#979797" fill="#D8D8D8" opacity="0" x="0" y="0" width="48" height="48"></rect>
                        <path d="M23.7247839,12.7260296 L23.4437839,12.8850296 C23.3687839,12.8900296 23.2927839,12.8970296 23.2167839,12.9040296 C23.1457839,12.9280296 23.0707839,12.9450296 22.9937839,12.9540296 C20.7747839,13.2060296 18.6817839,14.1220296 16.9907839,15.5810296 C15.2987839,17.0410296 14.0867839,18.9760296 13.5107839,21.1350296 C12.9357839,23.2940296 13.0237839,25.5760296 13.7647839,27.6840296 C14.5057839,29.7910296 15.8647839,31.6270296 17.6637839,32.9510296 C17.8437839,33.0830296 17.9767839,33.2690296 18.0447839,33.4820296 C18.1127839,33.6940296 18.1107839,33.9230296 18.0417839,34.1350296 C17.9717839,34.3460296 17.8367839,34.5310296 17.6557839,34.6610296 C17.4747839,34.7920296 17.2567839,34.8620296 17.0337839,34.8620296 C16.8077839,34.8620296 16.5867839,34.7900296 16.4037839,34.6550296 C14.2567839,33.0800296 12.6357839,30.8940296 11.7507839,28.3820296 C10.8667839,25.8700296 10.7607839,23.1500296 11.4467839,20.5770296 C12.1327839,18.0040296 13.5787839,15.6980296 15.5967839,13.9600296 C16.1547839,13.4790296 16.7487839,13.0490296 17.3727839,12.6700296 L17.3727839,9.07302957 C17.3697839,8.88602957 17.4167839,8.70202957 17.5087839,8.53902957 C17.6007839,8.37602957 17.7347839,8.24002957 17.8957839,8.14602957 C18.0567839,8.05102957 18.2407839,8.00102957 18.4277839,8.00001456 C18.6147839,7.99902957 18.7987839,8.04802957 18.9607839,8.14202957 L23.7247839,10.8940296 C23.8847839,10.9870296 24.0177839,11.1210296 24.1107839,11.2820296 C24.2037839,11.4420296 24.2517839,11.6250296 24.2517839,11.8100296 C24.2517839,11.9950296 24.2037839,12.1780296 24.1107839,12.3380296 C24.0177839,12.4990296 23.8847839,12.6330296 23.7247839,12.7260296 Z M25.0237839,35.1380296 L25.0637839,35.1160296 C25.0707839,35.1150296 25.0777839,35.1140296 25.0847839,35.1140296 C25.1827839,35.0790296 25.2857839,35.0580296 25.3917839,35.0520296 C27.6647839,34.8200296 29.8097839,33.8920296 31.5367839,32.3970296 C33.2637839,30.9010296 34.4877839,28.9100296 35.0427839,26.6940296 C35.5967839,24.4780296 35.4557839,22.1450296 34.6367839,20.0120296 C33.8187839,17.8790296 32.3627839,16.0500296 30.4677839,14.7740296 C30.3517839,14.6970296 30.2517839,14.5970296 30.1737839,14.4800296 C30.0967839,14.3630296 30.0427839,14.2320296 30.0157839,14.0950296 C29.9897839,13.9570296 29.9907839,13.8160296 30.0187839,13.6790296 C30.0477839,13.5410296 30.1027839,13.4110296 30.1817839,13.2960296 C30.2607839,13.1800296 30.3627839,13.0810296 30.4797839,13.0050296 C30.5977839,12.9290296 30.7297839,12.8770296 30.8667839,12.8520296 C31.0047839,12.8270296 31.1467839,12.8300296 31.2837839,12.8600296 C31.4197839,12.8900296 31.5497839,12.9470296 31.6637839,13.0280296 C33.9187839,14.5470296 35.6507839,16.7240296 36.6237839,19.2630296 C37.5967839,21.8010296 37.7647839,24.5780296 37.1047839,27.2150296 C36.4437839,29.8530296 34.9877839,32.2230296 32.9327839,34.0030296 C32.3687839,34.4910296 31.7667839,34.9290296 31.1347839,35.3120296 L31.1347839,38.9420296 C31.1347839,39.1280296 31.0857839,39.3110296 30.9927839,39.4710296 C30.8997839,39.6320296 30.7657839,39.7660296 30.6047839,39.8580296 C30.4437839,39.9510296 30.2617839,40.0000296 30.0757839,40.0000296 C29.8907839,40.0000296 29.7077839,39.9510296 29.5467839,39.8580296 L24.7827839,37.1060296 C24.6227839,37.0130296 24.4897839,36.8790296 24.3967839,36.7180296 C24.3047839,36.5580296 24.2557839,36.3760296 24.2557839,36.1900296 C24.2557839,36.0050296 24.3047839,35.8220296 24.3967839,35.6620296 C24.4897839,35.5010296 24.6227839,35.3670296 24.7827839,35.2740296 L24.8277839,35.2490296 C24.8887839,35.2050296 24.9547839,35.1680296 25.0237839,35.1380296 Z M30.9867839,20.6390296 C31.2267839,21.2790296 31.3507839,21.9560296 31.3517871,22.6400296 C31.3527839,23.5900296 31.1167839,24.5250296 30.6667839,25.3610296 C30.2157839,26.1980296 29.5647839,26.9090296 28.7707839,27.4310296 C27.9767839,27.9540296 27.0657839,28.2710296 26.1197839,28.3530296 C25.1737839,28.4360296 24.2207839,28.2830296 23.3487839,27.9060296 L20.7707839,30.4840296 C20.3737839,30.8810296 19.8347839,31.1050296 19.2727839,31.1050296 C18.7107839,31.1050296 18.1727839,30.8810296 17.7747839,30.4840296 C17.3777839,30.0870296 17.1547839,29.5480296 17.1547839,28.9860296 C17.1547839,28.7080296 17.2097839,28.4320296 17.3157839,28.1750296 C17.4227839,27.9180296 17.5787839,27.6850296 17.7747839,27.4880296 L20.3527839,24.9100296 C19.9087839,23.8790296 19.7777839,22.7400296 19.9757839,21.6340296 C20.1727839,20.5290296 20.6907839,19.5060296 21.4657839,18.6920296 C22.2397839,17.8790296 23.2357839,17.3110296 24.3297839,17.0580296 C25.4237839,16.8060296 26.5677839,16.8800296 27.6207839,17.2720296 L24.6617839,20.2310296 C24.3637839,20.5290296 24.1967839,20.9330296 24.1967839,21.3530296 C24.1967839,21.7740296 24.3637839,22.1780296 24.6617839,22.4760296 L25.7837839,23.5980296 C26.0817839,23.8950296 26.4847839,24.0620296 26.9057839,24.0620296 C27.3267839,24.0620296 27.7297839,23.8950296 28.0277839,23.5980296 L30.9867839,20.6390296 Z" id="形状" fill="#147BD1"></path>
                    </g>
                </g>
            </g>
        </g>
    </g>
</svg>