<?xml version="1.0" encoding="UTF-8"?>
<svg width="88px" height="88px" viewBox="0 0 88 88" version="1.1" xmlns="http://www.w3.org/2000/svg" xmlns:xlink="http://www.w3.org/1999/xlink">
    <title>编组 3 2</title>
    <g id="页面-1" stroke="none" stroke-width="1" fill="none" fill-rule="evenodd">
        <g id="B-平台产品线产品介绍" transform="translate(-916.000000, -662.000000)">
            <g id="产品优势" transform="translate(392.000000, 590.000000)">
                <g id="编组-3" transform="translate(524.000000, 72.000000)">
                    <rect id="矩形" stroke="#979797" fill="#D8D8D8" opacity="0" x="0" y="0" width="88" height="88"></rect>
                    <g id="编组" transform="translate(12.000000, 14.000000)" fill-rule="nonzero">
                        <polygon id="路径" fill="#FFFFFF" points="32 0 0 23.2562917 12.2198254 60.877247 51.7801746 60.877247 64 23.2562917"></polygon>
                        <path d="M48.4108885,50.1366204 C48.4108885,48.4191063 47.0138675,47.030303 45.3045711,47.030303 C44.4252696,47.030303 43.6281459,47.4001027 43.0611197,47.9835645 L46.63585,52.9388803 C47.6795069,52.4375963 48.4108885,51.3692861 48.4108885,50.1366204 L48.4108885,50.1366204 Z M42.190036,50.1366204 C42.190036,51.6815614 43.3240883,52.9635336 44.7950693,53.201849 L42.2311248,49.6435542 C42.2064715,49.8079096 42.190036,49.972265 42.190036,50.1366204 Z" id="形状" fill="#E6E6E6"></path>
                        <path d="M46.63585,52.9388803 L43.0611197,47.9835645 C42.6337956,48.4273241 42.3379558,49.0025681 42.2311248,49.6435542 L44.7950693,53.201849 C44.9594248,53.2265023 45.1237802,53.2429379 45.2963534,53.2429379 C45.7812018,53.2429379 46.2331793,53.1361068 46.63585,52.9388803 Z" id="路径" fill="#E6E6E6"></path>
                        <path d="M34.0051361,48.1890087 C33.8161274,47.7781202 33.3230611,47.5973292 32.9121726,47.786338 C32.501284,47.9753467 32.3204931,48.4684129 32.5095018,48.8793015 C32.6327684,49.1504879 32.7724705,49.4134566 32.9121726,49.6682075 C33.0600924,49.9393939 33.3394967,50.0873138 33.6271186,50.0873138 C33.7668207,50.0873138 33.8983051,50.0544427 34.0297894,49.9804828 C34.4242424,49.758603 34.5639445,49.257319 34.3420647,48.8628659 C34.2270159,48.6492039 34.1037494,48.4191063 34.0051361,48.1890087 Z M33.1669235,45.2881356 C33.1422702,45.0416025 33.1258346,44.8115049 33.1258346,44.5978428 L33.1258346,44.5731895 C33.1258346,44.1212121 32.7642527,43.7514124 32.3122753,43.7431947 L32.3040575,43.7431947 C31.8520801,43.7431947 31.4822804,44.1047766 31.4822804,44.556754 L31.4822804,44.5978428 C31.4822804,44.877247 31.498716,45.1730868 31.5315871,45.4771443 C31.5808937,45.8962506 31.9342578,46.2085259 32.3451464,46.2085259 C32.3780175,46.2085259 32.4108885,46.2085259 32.4355419,46.2003082 C32.895737,46.1510015 33.2162301,45.740113 33.1669235,45.2881356 Z M36.8156138,51.5911659 C36.6101695,51.4596816 36.412943,51.3117617 36.2239343,51.155624 C35.8705701,50.8680021 35.3528505,50.9173087 35.0652286,51.2706728 C34.7776066,51.624037 34.8269132,52.1417565 35.1802773,52.4293785 C35.4185927,52.626605 35.6651258,52.807396 35.911659,52.9717514 C36.0513611,53.0621469 36.2074987,53.1032357 36.3636364,53.1032357 C36.6348228,53.1032357 36.8977915,52.9717514 37.0539291,52.7334361 C37.3004622,52.3472008 37.1936312,51.837699 36.8156138,51.5911659 L36.8156138,51.5911659 Z M40.2670776,52.6348228 C40.0205444,52.626605 39.7657935,52.6101695 39.5274782,52.5772984 C39.0755008,52.519774 38.6646122,52.8402671 38.6070878,53.2840267 C38.5495634,53.7360041 38.8700565,54.1468927 39.3138161,54.2044171 C39.6096559,54.2455059 39.9054956,54.2619414 40.2095532,54.2701592 L40.2342065,54.2701592 C40.6779661,54.2701592 41.039548,53.9167951 41.0559836,53.4730354 C41.0724191,53.021058 40.719055,52.6430406 40.2670776,52.6348228 L40.2670776,52.6348228 Z M34.4817668,40.2177709 C34.0955316,39.9794556 33.5860298,40.1109399 33.3559322,40.4971751 C33.2080123,40.7437083 33.0683102,40.9738059 32.9286081,41.1874679 C32.6902928,41.5737031 32.8053416,42.0832049 33.1915768,42.3215203 C33.3230611,42.403698 33.4791988,42.4447869 33.6271186,42.4447869 C33.8983051,42.4447869 34.1694915,42.3050847 34.3256292,42.0585516 C34.473549,41.8202363 34.6214689,41.5819209 34.761171,41.3436055 C34.9994864,40.9573703 34.8680021,40.4560863 34.4817668,40.2177709 L34.4817668,40.2177709 Z M36.9799692,33.2819723 C36.8813559,33.5285054 36.7827427,33.7832563 36.6841294,34.0297894 C36.5115562,34.4488957 36.7087827,34.9337442 37.1278891,35.1063174 C37.2347201,35.1474063 37.3415511,35.1720596 37.4401644,35.1720596 C37.7606574,35.1720596 38.0647149,34.9830508 38.1961993,34.6625578 C38.3030303,34.3995891 38.4098613,34.1366204 38.5084746,33.8818695 C38.67283,33.4627632 38.459168,32.9861325 38.0400616,32.8217771 C37.9167951,32.7724705 37.7935285,32.7560349 37.6702619,32.7724705 L37.3251156,32.8875193 C37.1771957,32.9614792 37.0457114,33.1011813 36.9799692,33.2819723 L36.9799692,33.2819723 Z" id="形状" fill="#1A9DF5"></path>
                        <path d="M32,0 L0,23.2562917 L12.2198254,60.877247 L51.7719569,60.877247 L63.9917822,23.2562917 L32,0 Z M32.8217771,4.66769389 L59.3240883,23.9219312 L55.7740113,25.0888546 L32.8217771,8.41499743 L32.8217771,4.66769389 Z M32.8217771,10.4447869 L53.8428351,25.721623 L39.6178737,30.3893169 C39.6671803,30.2003082 39.7082691,30.0030817 39.749358,29.8140729 C39.8397535,29.3703133 39.5603493,28.9347714 39.1165896,28.844376 C38.67283,28.7539805 38.2372881,29.0333847 38.1468927,29.4771443 C38.097586,29.7236775 38.0318439,29.9866461 37.9661017,30.2496148 C37.9085773,30.4797124 37.9578839,30.7180277 38.0729327,30.8988187 L33.9804828,32.2465331 C33.6928608,31.8438624 33.29019,31.5398048 32.8217771,31.3672316 L32.8217771,10.4447869 Z M4.17462763,25.4668721 L10.1571649,27.3898305 C10.2639959,26.8392399 10.4365691,26.3215203 10.6831022,25.828454 L4.6923472,23.9054956 L31.1782229,4.65947612 L31.1782229,18.2352337 C31.1289163,18.2270159 31.0878274,18.2187982 31.0385208,18.2187982 C30.742681,18.2023626 30.4468413,18.2023626 30.1510015,18.2105804 C29.6990241,18.2270159 29.3374422,18.6050334 29.3538778,19.0570108 C29.3703133,19.5089882 29.740113,19.8705701 30.2003082,19.8541346 C30.4550591,19.8459168 30.70981,19.8459168 30.9563431,19.8623523 L30.9974319,19.8623523 C31.0631741,19.8623523 31.1206985,19.8541346 31.1782229,19.837699 L31.1782229,31.3590139 C30.7673344,31.5069337 30.4139702,31.7534669 30.1427838,32.0821777 L22.0318439,29.4771443 C21.9414484,30.027735 21.777093,30.5536723 21.5469954,31.0467386 L29.5675398,33.6271186 L29.5675398,33.6435542 C29.5675398,34.2352337 29.7812018,34.7776066 30.134566,35.1967129 L14.3071392,56.645095 L4.17462763,25.4668721 L4.17462763,25.4668721 Z M15.6548536,57.5901387 L31.5644581,36.0431433 C31.7041602,36.0677966 31.8520801,36.0842322 32,36.0842322 C32.1397021,36.0842322 32.2794042,36.0677966 32.4191063,36.0513611 L41.0559836,48.0164355 C40.7354905,48.6574217 40.5546995,49.3805855 40.5546995,50.1448382 C40.5546995,52.7663071 42.6831022,54.8947098 45.3045711,54.8947098 C45.5346687,54.8947098 45.7647663,54.8782743 45.9866461,54.8454032 L47.9671289,57.5983564 L15.6548536,57.5983564 L15.6548536,57.5901387 Z M42.190036,50.1366204 C42.190036,49.972265 42.2064715,49.8079096 42.2311248,49.6435542 C42.3297381,49.0025681 42.6337956,48.4273241 43.0611197,47.9835645 C43.6281459,47.391885 44.4252696,47.030303 45.3045711,47.030303 C47.0220853,47.030303 48.4108885,48.4273241 48.4108885,50.1366204 C48.4108885,51.3692861 47.6877247,52.4375963 46.63585,52.9388803 C46.2331793,53.1361068 45.7812018,53.2429379 45.2963534,53.2429379 C45.1237802,53.2429379 44.9594248,53.2265023 44.7950693,53.201849 C43.3240883,52.9635336 42.190036,51.6815614 42.190036,50.1366204 L42.190036,50.1366204 Z M49.577812,57.0148947 L47.6137648,54.2865948 C49.0683102,53.4730354 50.0544427,51.9198767 50.0544427,50.1366204 C50.0544427,47.5151515 47.9260401,45.3867488 45.3045711,45.3867488 C44.0636877,45.3867488 42.9378531,45.8633796 42.0914227,46.6440678 L36.2978942,38.6153056 C36.3389831,38.565999 36.3800719,38.5084746 36.412943,38.4509502 C36.5444273,38.2044171 36.6759117,37.9496662 36.7991782,37.7113508 C37.0046225,37.30868 36.8402671,36.8156138 36.4375963,36.6101695 C36.0349255,36.4047252 35.5418593,36.5690806 35.336415,36.9717514 C35.3035439,37.0292758 35.2706728,37.095018 35.2460195,37.1525424 L33.8489985,35.2213662 C34.1777093,34.835131 34.3831536,34.3502825 34.4242424,33.8243451 L37.3251156,32.8710837 C37.4319466,32.8053416 37.5469954,32.7642527 37.6702619,32.7560349 L59.8171546,25.4833077 L49.577812,57.0148947 Z" id="形状" fill="#147BD1"></path>
                        <path d="M19.517206,23.4535182 L19.4514638,23.5192604 C19.911659,23.8315357 20.3225475,24.2013354 20.6759117,24.6204417 L20.700565,24.5957884 C21.0128403,24.2670776 21.0046225,23.749358 20.6759117,23.4370827 C20.3554186,23.1165896 19.837699,23.1248074 19.517206,23.4535182 L19.517206,23.4535182 Z M38.4098613,25.6558808 C38.4345146,25.8941962 38.4509502,26.1489471 38.459168,26.403698 C38.4673857,26.8474576 38.8371854,27.2008218 39.280945,27.2008218 L39.3055984,27.2008218 C39.7575758,27.192604 40.1191577,26.8145865 40.1027221,26.3543914 C40.0945044,26.0503338 40.0780688,25.7544941 40.0451977,25.4668721 C39.9958911,25.0148947 39.5850026,24.6944016 39.1412429,24.7437083 C38.6810478,24.7930149 38.3605547,25.2039034 38.4098613,25.6558808 Z M22.5906523,22.6892655 C22.7550077,22.6892655 22.9275809,22.6399589 23.0755008,22.5331279 C23.2891628,22.3769902 23.5028249,22.2290704 23.7247047,22.0811505 C24.1027221,21.8346174 24.2095532,21.3251156 23.9548023,20.9388803 C23.7082691,20.5608629 23.1905496,20.4540318 22.8125321,20.7087827 C22.5742167,20.8649204 22.3359014,21.0292758 22.1058038,21.201849 C21.7360041,21.4730354 21.6538264,21.9825372 21.9250128,22.3523369 C22.0893683,22.5742167 22.3441192,22.6892655 22.5906523,22.6892655 L22.5906523,22.6892655 Z M34.6379045,20.7498716 C34.7447355,20.7991782 34.8597843,20.8238315 34.9666153,20.8238315 C35.2788906,20.8238315 35.5829481,20.6430406 35.7226502,20.3307653 C35.9034412,19.911659 35.7226502,19.4268105 35.3035439,19.2460195 C35.0323575,19.1309707 34.761171,19.0159219 34.4899846,18.9173087 C34.0626605,18.761171 33.5942476,18.9830508 33.4381099,19.4103749 C33.2819723,19.837699 33.5038521,20.306112 33.9311762,20.4622496 C34.1612738,20.5526451 34.3995891,20.6512583 34.6379045,20.7498716 L34.6379045,20.7498716 Z M37.4812532,22.9440164 C37.6373909,23.1823318 37.9003595,23.3138161 38.1633282,23.3138161 C38.3194658,23.3138161 38.4756035,23.2727273 38.6153056,23.174114 C38.9933231,22.9193631 39.0919363,22.4098613 38.8454032,22.0318439 C38.67283,21.777093 38.4838213,21.5223421 38.2701592,21.2922445 C37.9661017,20.9553159 37.4483821,20.9224448 37.1114535,21.2265023 C36.7745249,21.5305598 36.7416538,22.0482794 37.0457114,22.385208 C37.201849,22.5577812 37.3497689,22.7467899 37.4812532,22.9440164 L37.4812532,22.9440164 Z M26.1736004,20.700565 C26.2722137,20.700565 26.3708269,20.6841294 26.4694402,20.6430406 C26.7077555,20.5526451 26.9542886,20.4622496 27.192604,20.3800719 C27.6281459,20.2403698 27.8582435,19.7801746 27.7267591,19.3446328 C27.587057,18.9090909 27.1268618,18.6707756 26.69132,18.8104777 C26.4201335,18.9008731 26.1407293,18.9994864 25.8695429,19.1063174 C25.4504366,19.2706728 25.2367745,19.7473035 25.4011299,20.1746276 C25.540832,20.5033385 25.8448896,20.700565 26.1736004,20.700565 Z M37.3251156,32.8875193 L37.6702619,32.7560349 C37.5469954,32.7748184 37.4319466,32.8123854 37.3251156,32.8875193 Z" id="形状" fill="#1A9DF5"></path>
                        <path d="M20.4704674,28.5156651 C20.4704674,26.0996405 18.4982024,24.1273754 16.0821777,24.1273754 C14.4550591,24.1273754 13.0333847,25.0231125 12.269132,26.3461736 L20.4458141,28.9758603 C20.4622496,28.8197227 20.4704674,28.6718028 20.4704674,28.5156651 L20.4704674,28.5156651 Z M11.693888,28.5156651 C11.693888,30.9316898 13.6661531,32.9039548 16.0821777,32.9039548 C17.7668207,32.9039548 19.2378017,31.9424756 19.9691834,30.5454545 L11.7349769,27.8993323 C11.7103236,28.0965588 11.693888,28.3020031 11.693888,28.5156651 Z" id="形状" fill="#FFFFFF"></path>
                        <path d="M19.9691834,30.5454545 C20.2239343,30.0688238 20.3882897,29.5346687 20.4458141,28.9758603 L12.269132,26.3461736 C11.9979456,26.8145865 11.8171546,27.3405239 11.7349769,27.8993323 L19.9691834,30.5454545 L19.9691834,30.5454545 Z" id="路径" fill="#FFFFFF"></path>
                        <path d="M20.6759117,24.6204417 C20.3225475,24.2013354 19.911659,23.8315357 19.4514638,23.5192604 C18.4899846,22.8618387 17.3230611,22.4838213 16.0739599,22.4838213 C13.7154597,22.4838213 11.6610169,23.8479712 10.6748844,25.828454 C10.4283513,26.3133025 10.2557781,26.8392399 10.1489471,27.3898305 C10.0832049,27.7514124 10.0421161,28.1294299 10.0421161,28.5156651 C10.0421161,31.8438624 12.7457627,34.547509 16.0739599,34.547509 C18.4899846,34.547509 20.5855162,33.1176168 21.5469954,31.0549563 C21.777093,30.5618901 21.9414484,30.0359527 22.0318439,29.4853621 C22.0811505,29.1730868 22.1140216,28.844376 22.1140216,28.5156651 C22.1140216,27.0282486 21.5716487,25.6723164 20.6759117,24.6204417 L20.6759117,24.6204417 Z M20.4458141,28.9676425 C20.3882897,29.526451 20.2239343,30.0606061 19.9691834,30.5372368 C19.2378017,31.9342578 17.7668207,32.895737 16.0821777,32.895737 C13.6661531,32.895737 11.693888,30.923472 11.693888,28.5074474 C11.693888,28.2937853 11.7103236,28.088341 11.7349769,27.8911145 C11.8171546,27.3323061 11.9979456,26.8063688 12.269132,26.3379558 C13.0251669,25.0148947 14.4468413,24.1191577 16.0821777,24.1191577 C18.4982024,24.1191577 20.4704674,26.0914227 20.4704674,28.5074474 C20.4704674,28.6718028 20.4622496,28.8197227 20.4458141,28.9676425 L20.4458141,28.9676425 Z" id="形状" fill="#C4C4C4"></path>
                    </g>
                </g>
            </g>
        </g>
    </g>
</svg>