<?xml version="1.0" encoding="UTF-8"?>
<svg width="29px" height="32px" viewBox="0 0 29 32" version="1.1" xmlns="http://www.w3.org/2000/svg" xmlns:xlink="http://www.w3.org/1999/xlink">
    <title>编组 3</title>
    <g id="页面-1" stroke="none" stroke-width="1" fill="none" fill-rule="evenodd">
        <g id="B-平台产品线产品介绍" transform="translate(-1366.000000, -1809.000000)" fill="#147BD1" fill-rule="nonzero">
            <g id="解决方案" transform="translate(360.000000, 1732.000000)">
                <g id="编组-6" transform="translate(840.000000, 61.000000)">
                    <g id="编组" transform="translate(166.000000, 16.000000)">
                        <path d="M9.21890912,26.2676364 L14.0101819,29.2567273 L19.3614546,26.272 L19.0952727,29.1258182 L19.0443637,29.1549091 L13.944,32 L9.38909094,29.1578182 L9.21963638,26.2676364 L9.21890912,26.2676364 Z M13.5541819,0 L13.6116364,0.0327272728 L21.264,4.38254543 L19.2494546,5.36436362 C19.0749091,5.44945453 17.4967273,6.24145453 15.5258182,7.93599999 C18.5905455,11.0014545 20.8043636,14.5970909 22.1069091,18.6290909 C23.6676736,18.0975607 25.1863601,17.4496818 26.6501818,16.6909091 L28.3738182,15.8043636 L28.3738182,24.0465455 L28.3170909,24.0770909 L20.7978182,28.3061818 L20.9527273,26.1170909 C20.9658182,25.9229091 21.0690909,24.1556364 20.5090909,21.5403636 C16.2072727,22.5978182 11.9607273,22.6167273 7.88363639,21.5970909 C7.64772736,23.11171 7.54624105,24.6442262 7.58036366,26.1767273 L7.62400003,28.3803636 L0,23.5301818 L0,14.8952727 L1.91709092,16.4225455 C2.07709091,16.5505455 3.54909092,17.68 6.11636366,18.6465455 C7.19636366,14.6610909 9.21527275,11.0821818 12.1214546,8.00799999 C10.9231172,7.01547518 9.65163271,6.11473903 8.31781821,5.31345454 L6.67636364,4.32145453 L13.5541819,0 Z M26.0101819,19.6232727 C24.9399016,20.1065948 23.8450725,20.5336024 22.7301818,20.9025455 C23.0378182,22.2618182 23.1825455,23.4276364 23.2494546,24.2167273 L26.0101819,22.664 L26.0101819,19.6232727 Z M2.36218183,19.4734545 L2.36218183,22.2327273 L5.25381819,24.0727273 C5.31200002,23.0014546 5.43345454,21.9396364 5.61236366,20.912 C4.4935741,20.5168153 3.4069534,20.035872 2.36218183,19.4734545 L2.36218183,19.4734545 Z M13.8261818,9.55054545 C11.1578182,12.3490909 9.3170909,15.6450909 8.35200001,19.3505455 C12.0378182,20.2909091 15.9229091,20.2654545 19.9010909,19.2763637 C18.72,15.632 16.6770909,12.3607273 13.8261818,9.55054545 Z M24.376,5.27272725 L28.373091,7.69963637 L28.373091,13.9941818 L26.0109091,15.2698182 L26.0109091,9.02981817 L21.5352728,6.312 L24.376,5.27199999 L24.376,5.27272725 Z M4.56290912,5.24727273 L6.76363637,6.70399998 L2.36218183,9.25236362 L2.36218183,15.2661818 L0,13.5250909 L0,7.89018181 L4.56290912,5.24727273 Z M13.6145455,2.75272725 L11.1323637,4.31345455 C12.0636279,4.94758381 12.9601898,5.63123353 13.8181819,6.36145453 C14.6377849,5.63375976 15.5022738,4.95824878 16.4065455,4.33890907 L13.6145455,2.75345455 L13.6145455,2.75272725 Z" id="形状"></path>
                    </g>
                </g>
            </g>
        </g>
    </g>
</svg>