<?xml version="1.0" encoding="UTF-8"?>
<svg width="48px" height="48px" viewBox="0 0 48 48" version="1.1" xmlns="http://www.w3.org/2000/svg" xmlns:xlink="http://www.w3.org/1999/xlink">
    <title>icon</title>
    <g id="页面-1" stroke="none" stroke-width="1" fill="none" fill-rule="evenodd">
        <g id="B-平台产品线产品介绍" transform="translate(-536.000000, -2338.000000)">
            <g id="核心能力" transform="translate(0.000000, 2186.000000)">
                <g id="icon" transform="translate(536.000000, 152.000000)">
                    <rect id="矩形" stroke="#979797" fill="#D8D8D8" opacity="0" x="0" y="0" width="48" height="48"></rect>
                    <path d="M34.793,21.8036 L35.004,21.8036 L35.004,21.7934 C35.007,21.6577 35.011,21.5252 35.011,21.3893 C35.011,15.65 30.361,11 24.621,11 C19.214,11 14.775,15.12857 14.279,20.4036 C10.675,21.3107 8,24.5679 8,28.4536 C8,33.0464 11.721,36.7643 16.311,36.7643 L32.518,36.7643 L32.518,36.7571 C36.668,36.6464 40,33.2571 40,29.0786 C40.004,25.6964 37.818,22.8357 34.793,21.8036 Z M32.208,34.6821 L32.208,34.6821 C32.174,34.6803 32.141,34.6786 32.107,34.6786 L32.107,34.6857 L16.314,34.6857 C12.871,34.6857 10.079,31.8929 10.079,28.45 C10.079,25.0071 12.871,22.2143 16.314,22.2143 C19.757,22.2143 22.55,25.0071 22.55,28.45 L22.571,28.45 C22.557,28.5179 22.55,28.5857 22.55,28.6571 C22.55,29.2286 23.018,29.6964 23.589,29.6964 C24.161,29.6964 24.629,29.2286 24.629,28.6571 C24.629,28.5857 24.621,28.5179 24.607,28.45 L24.629,28.45 C24.629,23.8964 20.961,20.2 16.421,20.1429 C17.025,16.1393 20.461,13.07143 24.629,13.07143 C29.221,13.07143 32.939,16.7929 32.939,21.3821 L32.939,21.4107 C32.736,21.3929 32.529,21.3821 32.321,21.3821 C31.596,21.3821 30.9,21.4893 30.232,21.675 C30.236,21.6986 30.241,21.7211 30.246,21.7431 L30.246,21.7431 C30.25,21.7611 30.254,21.7788 30.257,21.7964 L30.239,21.7964 C29.668,21.7964 29.2,22.2643 29.2,22.8357 C29.2,23.4071 29.668,23.875 30.239,23.875 C30.482,23.875 30.696,23.7893 30.875,23.6536 C31.332,23.5321 31.818,23.4571 32.318,23.4571 C35.414,23.4571 37.929,25.9679 37.929,29.0679 C37.925,32.1714 35.411,34.6857 32.314,34.6857 C32.278,34.6857 32.243,34.6839 32.208,34.6821 Z M12.161,29.7 C11.929,29.7 11.743,29.8857 11.746,30.1142 C11.746,30.3428 11.932,30.5285 12.161,30.5285 C12.389,30.5285 12.575,30.3428 12.575,30.1142 C12.575,29.8857 12.389,29.7 12.161,29.7 Z M11.331997,28.4502 C11.329,25.7002 13.561,23.468 16.314,23.468 C16.543,23.468 16.729,23.6537 16.729,23.8823 C16.729,24.1109 16.543,24.2966 16.314,24.2966 C14.018,24.2966 12.161,26.1537 12.161,28.4502 C12.161,28.6787 11.975,28.8644 11.746,28.8644 C11.518,28.8644 11.331997,28.6787 11.331997,28.4502 Z" id="形状" fill="#147BD1"></path>
                </g>
            </g>
        </g>
    </g>
</svg>