<?xml version="1.0" encoding="UTF-8"?>
<svg width="32px" height="27px" viewBox="0 0 32 27" version="1.1" xmlns="http://www.w3.org/2000/svg" xmlns:xlink="http://www.w3.org/1999/xlink">
    <title>编组</title>
    <g id="页面-1" stroke="none" stroke-width="1" fill="none" fill-rule="evenodd">
        <g id="B-平台产品线产品介绍" transform="translate(-524.000000, -1811.000000)" fill="#147BD1" fill-rule="nonzero">
            <g id="解决方案" transform="translate(360.000000, 1732.000000)">
                <g id="编组-6" transform="translate(0.000000, 61.000000)">
                    <g id="编组" transform="translate(164.000000, 18.000000)">
                        <path d="M16.0016716,0 C21.3032992,0.00102654807 25.9462057,3.55554694 27.3306212,8.67322709 L27.4479423,9.14891072 L27.5311336,9.56273415 L27.808438,9.71418499 C30.113471,11.0768658 31.645565,13.4421345 31.9466722,16.1028508 L31.9893344,16.6062649 L32,17.0648836 C31.9970107,21.4370846 28.6911047,25.1002862 24.3421335,25.550397 L24.2696077,25.5589294 C23.8947443,26.2403497 23.1787279,26.6638806 22.401003,26.6638806 L9.60234027,26.6638806 C8.82461531,26.6638806 8.10859894,26.2403497 7.73373552,25.5589294 L8.06863386,25.5845267 C4.399303,25.384519 1.27021159,22.8576605 0.302043858,19.3127143 C-0.666123876,15.7677682 0.74414432,12.0011555 3.80241296,9.96375891 L4.1991715,9.7163181 L4.47220964,9.56060104 L4.55753406,9.15104383 C5.68203056,4.16857228 9.89988698,0.485495192 14.9884442,0.042662209 L15.5003907,0.0106655523 L16.0016716,0 Z M22.401003,13.8652179 L9.60234027,13.8652179 L9.60234027,24.5307702 L22.401003,24.5307702 L22.401003,13.8652179 Z M16.0016716,2.13311045 C11.3828971,2.13311045 7.4188314,5.42209586 6.5669241,9.9616258 L6.49439834,10.4159783 L6.41334015,10.9961844 L5.88006253,11.2414921 C3.31759646,12.4057838 1.81667554,15.1076593 2.18207268,17.8984105 C2.54746981,20.6891618 4.69339368,22.9135505 7.46922982,23.3788905 L7.46922982,13.8652179 C7.46922982,12.6871336 8.4242559,11.7321075 9.60234027,11.7321075 L22.401003,11.7321075 C23.5790873,11.7321075 24.5341134,12.6871336 24.5341134,13.8652179 L24.5341134,23.3767574 C27.2328131,22.9215798 29.3436361,20.8011314 29.7865309,18.1003888 C30.2294257,15.3996462 28.9064126,12.7160829 26.4944419,11.4228065 L26.1232807,11.239359 L25.5900031,10.9961844 L25.511078,10.4138452 C24.8520349,5.66720925 20.7938414,2.13335835 16.0016716,2.13311045 Z M13.8685612,20.2645493 L13.8685612,22.3976597 L11.7354507,22.3976597 L11.7354507,20.2645493 L13.8685612,20.2645493 Z M20.2678925,20.2645493 L20.2678925,22.3976597 L16.0016716,22.3976597 L16.0016716,20.2645493 L20.2678925,20.2645493 Z M13.8685612,15.9983284 L13.8685612,18.1314388 L11.7354507,18.1314388 L11.7354507,15.9983284 L13.8685612,15.9983284 Z M20.2678925,15.9983284 L20.2678925,18.1314388 L16.0016716,18.1314388 L16.0016716,15.9983284 L20.2678925,15.9983284 Z" id="形状"></path>
                    </g>
                </g>
            </g>
        </g>
    </g>
</svg>