<?xml version="1.0" encoding="UTF-8"?>
<svg width="88px" height="88px" viewBox="0 0 88 88" version="1.1" xmlns="http://www.w3.org/2000/svg" xmlns:xlink="http://www.w3.org/1999/xlink">
    <title>编组 3</title>
    <g id="页面-1" stroke="none" stroke-width="1" fill="none" fill-rule="evenodd">
        <g id="B-平台产品线产品介绍" transform="translate(-516.000000, -662.000000)">
            <g id="产品优势" transform="translate(392.000000, 590.000000)">
                <g id="编组-3" transform="translate(124.000000, 72.000000)">
                    <rect id="矩形" stroke="#979797" fill="#D8D8D8" opacity="0" x="0" y="0" width="88" height="88"></rect>
                    <g id="编组" transform="translate(11.875000, 12.562500)" fill-rule="nonzero">
                        <path d="M30.8435349,30.8435349 L30.8435349,43.1806512 L12.3371163,43.1806512 C5.52334884,43.1806512 0,37.6573023 0,30.8435349 C0,24.0297674 5.52334884,18.5056744 12.3371163,18.5056744 C19.1508837,18.5056744 24.6749767,24.0297674 24.6749767,30.8435349 L30.8435349,30.8435349 L30.8435349,30.8435349 Z" id="路径" fill="#000000" opacity="0.09"></path>
                        <path d="M53.975814,21.5903256 C53.975814,28.5849302 50.6500465,34.8018605 45.4935814,38.7475349 L45.4935814,43.1806512 L32.3854884,43.1806512 C20.4613953,43.1806512 10.7951628,33.5144186 10.7951628,21.5903256 C10.7951628,9.66623256 20.4613953,0 32.3854884,0 C44.3095814,0 53.975814,9.66623256 53.975814,21.5903256 Z" id="路径" fill="#75BEF2"></path>
                        <path d="M30.0725581,26.2169302 C30.0725581,35.5857346 37.6674747,43.1806512 47.0362791,43.1806512 C56.4050834,43.1806512 64,35.5857346 64,26.2169302 C64,16.8481259 56.4050834,9.2532093 47.0362791,9.2532093 C37.6674747,9.2532093 30.0725581,16.8481259 30.0725581,26.2169302 L30.0725581,26.2169302 Z" id="路径" fill="#147BD1"></path>
                        <path d="M16.0706977,49.6736744 L22.5637209,49.6736744 L22.5637209,59.4135814 L16.0706977,59.4135814 L16.0706977,49.6736744 Z M29.0574884,49.6736744 L35.5505116,49.6736744 L35.5505116,62.6604651 L29.0574884,62.6604651 L29.0574884,49.6736744 Z M42.0442791,49.6736744 L48.5373023,49.6736744 L48.5373023,59.4135814 L42.0442791,59.4135814 L42.0442791,49.6736744 Z" id="形状" fill="#000000" opacity="0.45"></path>
                    </g>
                </g>
            </g>
        </g>
    </g>
</svg>