<?xml version="1.0" encoding="UTF-8"?>
<svg width="48px" height="48px" viewBox="0 0 48 48" version="1.1" xmlns="http://www.w3.org/2000/svg" xmlns:xlink="http://www.w3.org/1999/xlink">
    <title>icon</title>
    <g id="页面-1" stroke="none" stroke-width="1" fill="none" fill-rule="evenodd">
        <g id="B-平台产品线产品介绍" transform="translate(-1336.000000, -2338.000000)">
            <g id="核心能力" transform="translate(0.000000, 2186.000000)">
                <g id="成本管理" transform="translate(1190.000000, 152.000000)">
                    <g id="icon" transform="translate(146.000000, 0.000000)">
                        <rect id="矩形" stroke="#979797" fill="#D8D8D8" opacity="0" x="0" y="0" width="48" height="48"></rect>
                        <path d="M23.484,9.00016587 C23.758,9.00016587 24.02,9.10891587 24.214,9.30250587 C24.407,9.49608587 24.516,9.75864587 24.516,10.0324159 C24.516,10.3061959 24.407,10.5687459 24.214,10.7623359 C24.02,10.9559259 23.758,11.0646759 23.484,11.0646759 C16.072,11.0646759 10.065,17.0723959 10.065,24.4839959 C10.065,31.8955959 16.072,37.9033959 23.484,37.9033959 C30.895,37.9033959 36.903,31.8955959 36.903,24.4839959 C36.903,24.2102959 37.012,23.9476959 37.206,23.7540959 C37.399,23.5604959 37.662,23.4517959 37.935,23.4517959 C38.209,23.4517959 38.472,23.5604959 38.665,23.7540959 C38.859,23.9476959 38.968,24.2102959 38.968,24.4839959 C38.968,33.0357959 32.036,39.9678959 23.484,39.9678959 C14.932,39.9678959 8,33.0357959 8,24.4839959 C8,15.9322859 14.932,9.00016587 23.484,9.00016587 Z M27.254,18.1495959 L27.311,18.2016959 C27.495,18.3859959 27.603,18.6330959 27.612,18.8934959 C27.622,19.1538959 27.533,19.4082959 27.363,19.6055959 L27.311,19.6617959 L25.068,21.9033959 L27.613,21.9033959 C27.887,21.9033959 28.149,22.0120959 28.343,22.2056959 C28.536,22.3992959 28.645,22.6618959 28.645,22.9355959 C28.645,23.2093959 28.536,23.4719959 28.343,23.6655959 C28.149,23.8591959 27.887,23.9678959 27.613,23.9678959 L24.516,23.9678959 L24.516,25.5162959 L27.613,25.5162959 C27.887,25.5162959 28.149,25.6250959 28.343,25.8185959 C28.536,26.0121959 28.645,26.2747959 28.645,26.5485959 C28.645,26.8222959 28.536,27.0848959 28.343,27.2784959 C28.149,27.4720959 27.887,27.5807959 27.613,27.5807959 L24.516,27.5807959 L24.516,29.6452959 C24.516,29.9190959 24.407,30.1816959 24.214,30.3751959 C24.02,30.5687959 23.758,30.6775959 23.484,30.6775959 C23.21,30.6775959 22.948,30.5687959 22.754,30.3751959 C22.56,30.1816959 22.452,29.9190959 22.452,29.6452959 L22.452,27.5807959 L19.355,27.5807959 C19.081,27.5807959 18.819,27.4720959 18.625,27.2784959 C18.431,27.0848959 18.323,26.8222959 18.323,26.5485959 C18.323,26.2747959 18.431,26.0121959 18.625,25.8185959 C18.819,25.6250959 19.081,25.5162959 19.355,25.5162959 L22.452,25.5162959 L22.452,23.9678959 L19.355,23.9678959 C19.219,23.9678959 19.085,23.9411959 18.96,23.8892959 C18.835,23.8374959 18.721,23.7613959 18.625,23.6655959 C18.529,23.5696959 18.453,23.4558959 18.401,23.3306959 C18.349,23.2053959 18.323,23.0711959 18.323,22.9355959 C18.323,22.8000959 18.349,22.6658959 18.401,22.5405959 C18.453,22.4153959 18.529,22.3015959 18.625,22.2056959 C18.721,22.1098959 18.835,22.0337959 18.96,21.9819959 C19.085,21.9300959 19.219,21.9033959 19.355,21.9033959 L21.898,21.9033959 L19.657,19.6617959 C19.468,19.4729959 19.36,19.2181959 19.355,18.9511959 C19.35,18.6840959 19.449,18.4254959 19.63,18.2296959 C19.812,18.0338959 20.063,17.9160959 20.329,17.9011959 C20.596,17.8862959 20.858,17.9752959 21.061,18.1495959 L21.117,18.2016959 L23.484,20.5686959 L25.851,18.2016959 C26.035,18.0175959 26.282,17.9098959 26.542,17.9001959 C26.803,17.8905959 27.057,17.9795959 27.254,18.1495959 Z M35.59,9.32377587 C35.769,9.51327587 35.869,9.76341587 35.871,10.0239959 C35.873,10.2845759 35.777,10.5363159 35.601,10.7286759 L35.547,10.7833859 L33.058,13.1291959 L38.968,13.1291959 C39.242,13.1291959 39.504,13.2379459 39.698,13.4315359 C39.891,13.6251259 40,13.8876759 40,14.1614559 C40,14.4352259 39.891,14.6977859 39.698,14.8913659 C39.504,15.0849559 39.242,15.1937059 38.968,15.1937059 L33.05,15.1937059 L35.549,17.5626959 C35.738,17.7418959 35.852,17.9859959 35.869,18.2459959 C35.886,18.5059959 35.803,18.7626959 35.639,18.9645959 L35.588,19.0223959 C35.409,19.2114959 35.165,19.3257959 34.905,19.3424959 C34.645,19.3590959 34.388,19.2768959 34.186,19.1121959 L34.129,19.0615959 L29.749,14.9103559 C29.553,14.7242359 29.438,14.4685659 29.428,14.1983259 C29.418,13.9280759 29.515,13.6648359 29.698,13.4651959 L29.751,13.4099659 L34.131,9.28093587 C34.33,9.09321587 34.595,8.99232587 34.869,9.00045587 C35.143,9.00858587 35.402,9.12506587 35.59,9.32429587 L35.59,9.32377587 Z" id="形状" fill="#147BD1" fill-rule="nonzero"></path>
                    </g>
                </g>
            </g>
        </g>
    </g>
</svg>