<?xml version="1.0" encoding="UTF-8"?>
<svg width="88px" height="88px" viewBox="0 0 88 88" version="1.1" xmlns="http://www.w3.org/2000/svg" xmlns:xlink="http://www.w3.org/1999/xlink">
    <title>编组 3 3</title>
    <g id="页面-1" stroke="none" stroke-width="1" fill="none" fill-rule="evenodd">
        <g id="B-平台产品线产品介绍" transform="translate(-1316.000000, -662.000000)">
            <g id="产品优势" transform="translate(392.000000, 590.000000)">
                <g id="编组-3" transform="translate(924.000000, 72.000000)">
                    <rect id="矩形" stroke="#979797" fill="#D8D8D8" opacity="0" x="0" y="0" width="88" height="88"></rect>
                    <g id="Frame" transform="translate(12.000000, 12.000000)" fill-rule="nonzero">
                        <path d="M0,28.5633184 C0,32.3142434 0.73847119,36.0285123 2.17376551,39.4939862 C3.60905982,42.9593705 5.71289207,46.1082044 8.3651398,48.7606135 C11.0174234,51.4129329 14.166078,53.5169354 17.6314623,54.9524359 C21.0968467,56.3878467 24.8110259,57.1267033 28.5620405,57.1267033 C32.3129654,57.1267033 36.0271447,56.3878467 39.492529,54.9524359 C42.9579133,53.5169354 46.106568,51.4129329 48.7588874,48.7606135 C51.4111172,46.1082044 53.5149405,42.9593705 54.9502617,39.4939862 C56.3854933,36.0285123 57.1239914,32.3142434 57.1239914,28.5633184 C57.1239914,24.8123935 56.3854933,21.0982142 54.9502617,17.6327403 C53.5149405,14.1672663 51.4111172,11.0184324 48.7588874,8.36608612 C46.106568,5.71372187 42.9579133,3.60973727 39.492529,2.17428163 C36.0271447,0.738822407 32.3129654,0 28.5620405,0 C24.8110259,0 21.0968467,0.738822407 17.6314623,2.17428163 C14.166078,3.60973727 11.0174234,5.71372187 8.3651398,8.36608612 C5.71289207,11.0184324 3.60905982,14.1672663 2.17376551,17.6327403 C0.73847119,21.0982142 0,24.8123935 0,28.5633184 Z" id="路径" fill="#D9DCE1"></path>
                        <path d="M54.3735342,44.5369243 L56.0661646,44.7485255 C60.5091626,45.2773941 64,49.4030351 64,54.3749913 C64,59.6642149 59.9802044,64.0013675 55.1140936,64.0013675 L35.8611619,64.0013675 C30.9950511,64.0013675 26.9752555,59.6642149 26.9752555,54.3749913 C26.9752555,49.4030351 30.4660929,45.2773941 34.9090909,44.7485255 L36.6016317,44.5369243 L37.1305899,42.9501393 C38.4000179,39.0360995 41.6793437,36.4972435 45.4876277,36.4972435 C49.2959118,36.4972435 52.5752376,39.0360995 53.8446656,42.9501393 L54.3735342,44.5369243 Z" id="路径" fill="#147BD1"></path>
                        <path d="M27.9273265,57.1253589 C27.7157253,56.2790437 27.5041241,55.3269727 27.5041241,54.3749017 C27.5041241,49.6146363 30.7835395,45.7005965 35.0149363,45.2773941 L37.0248341,45.0658825 L37.6595481,43.1617405 C38.8231307,39.4592123 41.9967007,37.0262017 45.4876277,37.0262017 C48.9785548,37.0262017 52.0462794,39.3534565 53.3157074,42.9501393 C48.3438408,51.4129329 39.1404877,57.1253589 28.5620405,57.1253589 L27.9273265,57.1253589 Z" id="路径" fill="#75BEF2"></path>
                        <path d="M20.0991573,28.5634081 C19.4644433,28.5634081 19.0413305,29.0922766 19.0413305,29.6212348 C19.0413305,30.1501931 19.5702887,30.6790616 20.0991573,30.6790616 L30.6776941,30.6790616 C31.3124081,30.6790616 31.7355209,30.1501931 31.7355209,29.6212348 L31.7355209,17.9848712 C31.7355209,17.3501572 31.2066523,16.9270444 30.6776941,16.9270444 C30.0429801,16.9270444 29.6198673,17.455913 29.6198673,17.9848712 L29.6198673,28.5634081 L20.0991573,28.5634081 Z" id="路径" fill="#73BFFF"></path>
                        <path d="M20.0991573,28.5634081 C19.4644433,28.5634081 19.0413305,29.0922766 19.0413305,29.6212348 C19.0413305,30.1501931 19.5702887,30.6790616 20.0991573,30.6790616 L30.6776941,30.6790616 C31.3124081,30.6790616 31.7355209,30.1501931 31.7355209,29.6212348 L31.7355209,17.9848712 C31.7355209,17.3501572 31.2066523,16.9270444 30.6776941,16.9270444 C30.0429801,16.9270444 29.6198673,17.455913 29.6198673,17.9848712 L29.6198673,28.5634081 L20.0991573,28.5634081 Z" id="路径" fill="#FFFFFF"></path>
                    </g>
                </g>
            </g>
        </g>
    </g>
</svg>