<?xml version="1.0" encoding="UTF-8"?>
<svg width="48px" height="48px" viewBox="0 0 48 48" version="1.1" xmlns="http://www.w3.org/2000/svg" xmlns:xlink="http://www.w3.org/1999/xlink">
    <title>icon</title>
    <g id="页面-1" stroke="none" stroke-width="1" fill="none" fill-rule="evenodd">
        <g id="B-平台产品线产品介绍" transform="translate(-936.000000, -2498.000000)">
            <g id="核心能力" transform="translate(0.000000, 2186.000000)">
                <g id="安管服务" transform="translate(790.000000, 312.000000)">
                    <g id="icon" transform="translate(146.000000, 0.000000)">
                        <rect id="矩形" stroke="#979797" fill="#D8D8D8" opacity="0" x="0" y="0" width="48" height="48"></rect>
                        <path d="M29.866,11.333 C33.013,12.587 36.053,12.64 36.08,12.64 L37.466,12.64 L37.466,26.107 C37.466,32.853 28.533,40 23.733,40 C18.933,40 10,32.853 10,26.107 L10,12.64 L11.36,12.64 C11.386,12.64 14.426,12.587 17.573,11.333 C20.8,10.053 22.88,8.613 22.906,8.587 L23.706,8 L24.533,8.587 C24.56,8.613 26.64,10.08 29.866,11.333 Z M23.733,37.707 C27.066,37.707 35.173,31.547 35.173,26.16 L35.146,26.16 L35.146,14.933 C33.706,14.773 31.44,14.427 29.04,13.467 C26.613,12.48 24.746,11.44 23.733,10.827 C22.053,11.867 20.266,12.747 18.426,13.467 C16,14.427 13.706,14.773 12.293,14.933 L12.293,26.16 C12.293,31.547 20.4,37.707 23.733,37.707 Z M18.08,25.12 L22.693,29.547 L31.6,20.827 C32.053,20.4 32.08,19.653 31.626,19.2 C31.2,18.747 30.453,18.72 30,19.173 L22.666,26.347 L19.68,23.467 C19.226,23.013 18.506,23.04 18.053,23.493 C17.6,23.947 17.626,24.667 18.08,25.12 Z" id="形状" fill="#147BD1"></path>
                    </g>
                </g>
            </g>
        </g>
    </g>
</svg>