<?xml version="1.0" encoding="UTF-8"?>
<svg width="48px" height="48px" viewBox="0 0 48 48" version="1.1" xmlns="http://www.w3.org/2000/svg" xmlns:xlink="http://www.w3.org/1999/xlink">
    <title>icon</title>
    <g id="页面-1" stroke="none" stroke-width="1" fill="none" fill-rule="evenodd">
        <g id="B-平台产品线产品介绍" transform="translate(-1336.000000, -2498.000000)">
            <g id="核心能力" transform="translate(0.000000, 2186.000000)">
                <g id="成本管理" transform="translate(1190.000000, 312.000000)">
                    <g id="icon" transform="translate(146.000000, 0.000000)">
                        <rect id="矩形" stroke="#979797" fill="#D8D8D8" opacity="0" x="0" y="0" width="48" height="48"></rect>
                        <path d="M23.0843709,37.2735 L23.0843709,23.6735 L35.0633709,16.8735 L36.2893709,16.1305 C36.5353709,15.9705 36.5813709,15.7675 36.6133709,15.6225 C36.6453709,15.3225 36.5033709,15.0085 36.1963709,14.8505 L22.6593709,8.0825 C22.4383709,7.9725 22.1873709,7.9725 21.9663709,8.0825 L8.42937092,14.8505 C7.92637092,15.1815 8.00437092,15.9135 8.00437092,15.9915 L8.00437092,30.4345 C8.00437092,30.7015 8.14637092,30.9535 8.37437092,31.0955 C8.37437092,31.0955 21.6203709,39.0995 21.8483709,39.2015 C22.3133709,39.4295 22.6043709,39.3675 22.8243709,39.2565 L27.2323709,36.7075 C27.3213709,36.6555 27.4003709,36.5855 27.4633709,36.5035 C27.5253709,36.4215 27.5713709,36.3275 27.5983709,36.2265 C27.6243709,36.1265 27.6303709,36.0225 27.6163709,35.9195 C27.6023709,35.8165 27.5683709,35.7185 27.5153709,35.6285 C27.3023709,35.2515 26.8153709,35.1255 26.4453709,35.3375 L23.3993709,37.1085 L23.3993709,37.1005 L23.0843709,37.2735 Z M21.5413709,23.6735 L21.5413709,37.2345 L9.53937092,30.0015 L9.53937092,16.8575 L21.5413709,23.6735 Z M22.3133709,22.3355 L10.4053709,15.5825 L22.3133709,9.6325 L34.2203709,15.5825 L22.3133709,22.3355 Z" id="形状" fill="#147BD1" fill-rule="nonzero"></path>
                        <path d="M32.9933709,36.1445 L39.2023709,32.4135 C39.3763709,32.3035 39.4863709,32.1145 39.4863709,31.9025 L39.4863709,25.0625 C39.4863709,24.8225 39.3053709,24.6535 39.1083709,24.5595 L38.9513709,24.4805 C38.9353709,24.4725 38.9113709,24.4725 38.8953709,24.4725 L38.9433709,24.4725 L32.9063709,21.4585 C32.7413709,21.3795 32.5443709,21.3795 32.3793709,21.4585 L26.3503709,24.4725 C25.9093709,24.6415 25.7993709,25.0195 25.7993709,25.2325 L25.7993709,31.9025 C25.7993709,32.1145 25.9093709,32.3035 26.0903709,32.4135 C26.0903709,32.4135 32.2443709,36.1055 32.2753709,36.1135 C32.2763709,36.1145 32.6433709,36.3855 32.9933709,36.1445 Z M32.0563709,34.6335 L26.9803709,31.5715 L26.9803709,26.0705 L32.0563709,28.9425 L32.0563709,34.6335 Z M32.6463709,27.9275 L27.6963709,25.1175 L32.6463709,22.6465 L37.5893709,25.1175 L32.6463709,27.9275 Z M38.3053709,31.5715 L33.2363709,34.6255 L33.2363709,28.9425 L38.3053709,26.0705 L38.3053709,31.5715 Z" id="形状" fill="#147BD1" fill-rule="nonzero"></path>
                    </g>
                </g>
            </g>
        </g>
    </g>
</svg>