<?xml version="1.0" encoding="UTF-8"?>
<svg width="24px" height="24px" viewBox="0 0 24 24" version="1.1" xmlns="http://www.w3.org/2000/svg" xmlns:xlink="http://www.w3.org/1999/xlink">
    <title>aif-color</title>
    <defs>
        <linearGradient x1="19.0910188%" y1="73.7438113%" x2="73.2124609%" y2="36.2493336%" id="linearGradient-1">
            <stop stop-color="#06CFF1" offset="0%"></stop>
            <stop stop-color="#06CFF1" offset="68.8294713%"></stop>
            <stop stop-color="#DDF360" offset="100%"></stop>
        </linearGradient>
    </defs>
    <g id="页面-1" stroke="none" stroke-width="1" fill="none" fill-rule="evenodd">
        <g id="B-首页/导航下拉菜单" transform="translate(-360.000000, -368.000000)">
            <g id="编组-2" transform="translate(360.000000, 100.000000)">
                <g id="Navigation/SideMenu/☀︎/Main/Icon/Clickable-#备份-2" transform="translate(0.000000, 260.000000)">
                    <g id="rpa-彩色" transform="translate(0.000000, 8.000000)">
                        <rect id="矩形" x="0" y="0" width="24" height="24"></rect>
                        <g id="logo1" transform="translate(0.000000, 0.900000)" fill-rule="nonzero">
                            <g id="编组备份-2">
                                <path d="M13.5957672,9.69741666 C14.0613757,9.69741666 14.4169312,9.76928069 14.6624339,9.91723604 C14.9079365,10.0651914 15.0857143,10.2258286 15.1915344,10.3991478 C15.2973544,10.5766942 15.373545,10.7711498 15.4201057,10.9867419 C15.4666666,11.202334 15.4962963,11.4771082 15.5047618,11.8152919 C15.5132275,12.1492482 15.5132275,12.5001138 15.5089947,12.8552067 C15.4962963,13.3878459 15.437037,13.7936663 15.3396825,14.0684406 C15.242328,14.3432148 15.1111111,14.5503523 14.9417989,14.689853 C14.7767196,14.8293538 14.594709,14.9265816 14.3957672,14.9730819 C14.1968254,15.0195821 13.9343915,15.0407186 13.6084656,15.0364913 L10.4719577,15.0364913 L10.4719577,16.9218653 L8.51640211,16.9218653 L8.51640211,9.69741666 L13.5957672,9.69741666 Z M5.15555556,9.69741666 C5.68465608,9.69741666 6.08677248,9.76928069 6.36190476,9.91300875 C6.63703704,10.0567368 6.83597883,10.2638743 6.96719577,10.5344212 C7.09417989,10.8049682 7.17460317,11.0416967 7.20846561,11.2488342 C7.24232803,11.4559717 7.25925925,11.7434279 7.25925925,12.1112026 C7.25925925,12.4789773 7.24232803,12.7833426 7.2,13.0242985 C7.15767196,13.2483452 7.09417989,13.4258916 7.00105819,13.5527105 C6.9121693,13.6837566 6.79365079,13.7852117 6.64973545,13.8655304 L6.23915344,14.1022589 C6.4,14.174123 6.53121693,14.2417597 6.64126984,14.3093964 C6.75132274,14.3770332 6.85291005,14.4700337 6.95449735,14.5926252 C7.05608466,14.7152168 7.11957672,14.846263 7.15343916,14.9815365 C7.18306878,15.1210373 7.2,15.2478561 7.2,15.3704477 L7.19153439,16.8880469 L5.17671957,16.8838196 L5.17671957,15.9791783 C5.17671957,15.7804953 5.14708995,15.6114036 5.08359789,15.47613 C5.02010581,15.3408566 4.92698412,15.2267196 4.79576719,15.1337192 C4.66455027,15.0407186 4.52063491,14.9942183 4.35132274,14.9899911 L1.91746032,14.9899911 L1.91746032,16.8880469 L4.4365525e-16,16.8880469 L4.4365525e-16,9.69741666 L5.15555556,9.69741666 Z M20.6814814,9.71009855 L23.9619048,16.8373194 L21.7566138,16.8373194 L21.121693,15.4169479 L17.7904762,15.4169479 L17.1216931,16.8330921 L15.0095238,16.8330921 L18.2349207,9.71009855 L20.6814814,9.71009855 Z M19.4962963,11.6123817 L18.3449736,14.0811224 L20.5883598,14.0811224 L19.4962963,11.6123817 Z M12.8169312,11.3714258 L10.4761905,11.3714258 L10.4761905,13.3709367 L12.8169312,13.3709367 C13.1089947,13.3709367 13.3079365,13.2948454 13.426455,13.1468901 C13.5407407,12.9947074 13.5915344,12.7283878 13.578836,12.3352493 C13.5661376,12.0055202 13.5026455,11.7645643 13.3925926,11.6081544 C13.2825397,11.4517444 13.0920635,11.3714258 12.8169312,11.3714258 Z M4.21587301,11.346062 L1.91322751,11.346062 L1.91322751,13.3582549 L4.22857143,13.3582549 C4.53333333,13.3582549 4.73227513,13.3328911 4.83386244,13.2821635 C4.93544973,13.231436 5.0116402,13.1637992 5.07089947,13.075026 C5.13015873,12.9862528 5.16825397,12.7917972 5.18095237,12.4916592 C5.19365079,12.1915212 5.15555556,11.9547926 5.06243386,11.7814735 C4.994709,11.6546546 4.89312169,11.5489722 4.76613756,11.4686536 C4.63492063,11.388335 4.45291005,11.346062 4.21587301,11.346062 Z M11.9830688,1.08349192e-16 C12.6687831,1.08349192e-16 13.2275132,0.558003051 13.2275132,1.24282498 C13.2275132,1.67400915 13.0074074,2.05446578 12.6730159,2.27428517 L12.6730159,2.27428517 L12.673045,4.19900564 C15.722916,4.43273732 18.353743,6.18383657 19.8137566,8.69132025 L19.8137566,8.69132025 L16.7576719,8.69132025 C15.5555556,7.4273588 13.8582011,6.63262718 11.978836,6.63262718 C10.0994709,6.63262718 8.40211639,7.4273588 7.2,8.69132025 L7.2,8.69132025 L4.13544973,8.69132025 C5.59749562,6.17641046 8.23361689,4.42732076 11.2889001,4.1979822 L11.2888889,2.27428517 C10.9587302,2.05023849 10.7386243,1.67400915 10.7386243,1.24282498 C10.7386243,0.558003051 11.2973545,1.08349192e-16 11.9830688,1.08349192e-16 Z" id="形状结合" fill="url(#linearGradient-1)"></path>
                                <path d="M16.7619048,17.7504153 C15.5597883,19.0143767 13.8624339,19.8091083 11.9830688,19.8091083 C10.1037037,19.8091083 8.4063492,19.0143767 7.2042328,17.7504153 L4.14391534,17.7504153 C5.71428571,20.44743 8.63915344,22.2693945 11.9830688,22.2693945 C15.3269841,22.2693945 18.2518518,20.4516573 19.8222222,17.7504153 L16.7619048,17.7504153 Z" id="路径" fill="#FFC107"></path>
                            </g>
                        </g>
                    </g>
                </g>
            </g>
        </g>
    </g>
</svg>