<?xml version="1.0" encoding="UTF-8"?>
<svg width="24px" height="20px" viewBox="0 0 24 20" version="1.1" xmlns="http://www.w3.org/2000/svg" xmlns:xlink="http://www.w3.org/1999/xlink">
    <title>CloudOS-logo-SVG</title>
    <g id="页面-1" stroke="none" stroke-width="1" fill="none" fill-rule="evenodd">
        <g id="B-首页/导航下拉菜单" transform="translate(-360.000000, -474.000000)">
            <g id="编组-2" transform="translate(360.000000, 100.000000)">
                <g id="Navigation/SideMenu/☀︎/Main/Icon/Clickable-#备份-3" transform="translate(0.000000, 364.000000)">
                    <g id="CloudOS-logo-SVG" transform="translate(0.000000, 10.000000)">
                        <path d="M17.5968745,7.08571274 C16.6626647,7.08448581 15.7395943,7.28853293 14.8929472,7.683423 C14.819083,7.7392711 14.7487417,7.79963159 14.6823255,7.86415919 C14.3342646,8.18052149 14.2165809,8.67835512 14.3861454,9.11707976 C14.55571,9.5558044 14.9776114,9.84509149 15.4479638,9.84514175 C15.6381938,9.83882097 15.8265366,9.80527391 16.0072499,9.74552337 C18.0736371,8.85336258 20.4738094,9.78140898 21.4024965,11.83164 C22.3311837,13.8818709 21.4458731,16.298133 19.412444,17.2630541 C17.3790148,18.2279753 14.9474239,17.3856793 13.9465726,15.3696922 C13.9209564,15.3198831 13.6690643,14.9185633 13.6406019,14.8744466 C13.3634863,14.4559906 12.8450395,14.2683642 12.3643023,14.4125525 C11.8835652,14.5567409 11.5539587,14.9987255 11.5528792,15.5006193 C11.5522687,15.6862546 11.5977455,15.8691395 11.6852355,16.032866 C11.7179672,16.0940601 11.8858953,16.3857997 11.9314352,16.47261 C13.3959255,19.248132 16.6559197,20.5535261 19.6313033,19.5558553 C22.606687,18.5581846 24.420775,15.5514089 23.9160468,12.4540707 C23.4113185,9.35673245 20.7364902,7.08145023 17.5982976,7.08002026 L17.5968745,7.08571274 Z" id="路径" fill="#666666"></path>
                        <path d="M14.7734051,0.90368097 C13.0149242,-0.330272296 10.6634346,-0.297780107 8.93971934,0.984289115 C7.2160041,2.26635834 6.50847005,4.50911442 7.18443569,6.54822358 C7.86040133,8.58733274 9.76755053,9.96332011 11.9157809,9.96183876 C12.2361401,9.94845266 12.5549518,9.90990975 12.869271,9.84656487 C13.4144272,9.69022276 13.7613847,9.15648538 13.6829848,8.59479898 C13.604585,8.03311258 13.1247383,7.61477999 12.5576078,7.61369013 C12.4466045,7.61369013 11.9954756,7.63788317 11.8730873,7.63788317 C10.7013083,7.64009846 9.66145545,6.88730746 9.29766111,5.77342929 C8.93386678,4.65955113 9.32893338,3.43811321 10.2761312,2.7482674 C11.2233289,2.0584216 12.5070683,2.05718221 13.4555963,2.7451978 C13.8170687,2.97005071 13.9921124,3.09101588 14.3293918,3.09101588 C14.9581656,3.09101588 15.4678875,2.58129398 15.4678875,1.95252015 C15.4678875,1.48146755 15.0978764,1.11999516 14.7734051,0.90368097 Z" id="路径" fill="#FF730C"></path>
                        <path d="M5.55016665,8.54583351 C2.48489425,8.54583351 0,11.0307278 0,14.0960002 C0,17.1612726 2.48489425,19.6461668 5.55016665,19.6461668 C8.61543904,19.6461668 11.1003333,17.1612726 11.1003333,14.0960002 C11.1003333,12.6240044 10.5155853,11.2122978 9.47472712,10.1714397 C8.43386897,9.13058153 7.02216236,8.54583351 5.55016665,8.54583351 Z M5.56012848,17.3691754 C3.75240374,17.3691754 2.28695328,15.9037249 2.28695328,14.0960002 C2.28695328,12.2882754 3.75240374,10.822825 5.56012848,10.822825 C7.36785323,10.822825 8.83330864,12.2882754 8.83330864,14.0960002 C8.83481514,14.9650861 8.49063111,15.7990941 7.87662779,16.4141653 C7.26262447,17.0292364 6.42921571,17.3748678 5.56012848,17.3748678 L5.56012848,17.3691754 Z" id="形状" fill="#19BB20"></path>
                    </g>
                </g>
            </g>
        </g>
    </g>
</svg>