<?xml version="1.0" encoding="UTF-8"?>
<svg width="24px" height="24px" viewBox="0 0 24 24" version="1.1" xmlns="http://www.w3.org/2000/svg" xmlns:xlink="http://www.w3.org/1999/xlink">
    <title>aif-color</title>
    <defs>
        <linearGradient x1="8.60740741%" y1="102.57037%" x2="97.6074074%" y2="-11.4296296%" id="linearGradient-1">
            <stop stop-color="#676763" offset="0%"></stop>
            <stop stop-color="#C9C8C5" offset="44%"></stop>
            <stop stop-color="#ABAAA7" offset="44%"></stop>
            <stop stop-color="#44433F" offset="100%"></stop>
        </linearGradient>
        <linearGradient x1="42.0844276%" y1="11.3448926%" x2="58.4473633%" y2="86.3407538%" id="linearGradient-2">
            <stop stop-color="#F6AB16" offset="0%"></stop>
            <stop stop-color="#EC780A" offset="100%"></stop>
        </linearGradient>
        <linearGradient x1="8.43054083%" y1="-11.6648993%" x2="77.359491%" y2="91.728526%" id="linearGradient-3">
            <stop stop-color="#F6AB16" offset="0%"></stop>
            <stop stop-color="#EC780A" offset="100%"></stop>
        </linearGradient>
    </defs>
    <g id="页面-1" stroke="none" stroke-width="1" fill="none" fill-rule="evenodd">
        <g id="B-首页/导航下拉菜单" transform="translate(-360.000000, -264.000000)" fill-rule="nonzero">
            <g id="编组-2" transform="translate(360.000000, 100.000000)">
                <g id="Navigation/SideMenu/☀︎/Main/Icon/Clickable-#备份" transform="translate(0.000000, 156.000000)">
                    <g id="编组" transform="translate(0.000000, 8.000000)">
                        <rect id="矩形" fill-opacity="0" fill="#FFFFFF" x="0" y="0" width="24" height="24"></rect>
                        <g id="资源-3">
                            <path d="M12,0 C18.627417,0 24,5.372583 24,12 C24,18.627417 18.627417,24 12,24 C5.372583,24 0,18.627417 0,12 C0,5.372583 5.372583,0 12,0 Z M12.0888889,2.22222222 C6.68877133,2.22222222 2.31111111,6.59988245 2.31111111,12 C2.31111111,17.4001176 6.68877133,21.7777778 12.0888889,21.7777778 C17.4890064,21.7777778 21.8666667,17.4001176 21.8666667,12 C21.8666667,9.4067721 20.8365109,6.91975606 19.0028219,5.08606703 C17.1691328,3.25237799 14.6821168,2.22222222 12.0888889,2.22222222 Z" id="形状结合" fill="url(#linearGradient-1)"></path>
                            <g id="矩形-_-矩形备份-蒙版" transform="translate(4.622222, 7.643954)">
                                <path d="M11.1111111,0.000488492732 C9.83525337,-0.000737071086 8.62067738,0.547603503 7.77777778,1.50537944 C6.37817018,-0.0810963675 4.05426057,-0.461102067 2.22222222,0.596934994 L2.22222222,2.22271277 L4.44444444,2.22271277 C5.67174389,2.22271277 6.66666667,3.21763555 6.66666667,4.44493499 C6.66666667,5.67223444 5.67174389,6.66715722 4.44444444,6.66715722 L2.22222222,6.66715722 L2.22222222,2.22271277 L0.596444444,2.22271277 C-0.542509449,4.1998917 0.000805693307,6.71833562 1.85361034,8.05008913 C3.70641499,9.38184264 6.26668956,9.09418785 7.77777778,7.38449055 C9.13113422,8.91920853 11.3574406,9.33159174 13.1707052,8.38343336 C14.9839698,7.43527497 15.9155557,5.37162588 15.4273466,3.38452125 C14.9391375,1.39741662 13.1573107,0.000488492732 11.1111111,0.000488492732 Z M11.1111111,6.66715722 C9.88381167,6.66715722 8.88888889,5.67223444 8.88888889,4.44493499 C8.88888889,3.21763555 9.88381167,2.22271277 11.1111111,2.22271277 C12.3384106,2.22271277 13.3333333,3.21763555 13.3333333,4.44493499 C13.3333333,5.67223444 12.3384106,6.66715722 11.1111111,6.66715722 Z" id="形状" fill="#EC780A"></path>
                                <g id="编组">
                                    <path d="M4.43377778,0.000487335286 L2.22222222,0.000487335286 L2.22222222,2.22271277 L4.44444444,2.22271277 C5.67174389,2.22271277 6.66666667,3.21763555 6.66666667,4.44493499 C6.66666667,5.67223444 5.67174389,6.66715722 4.44444444,6.66715722 L2.22222222,6.66715722 L2.22222222,2.22271277 L0,2.22271277 L0,8.88937944 L4.44444444,8.88937944 C6.03229151,8.88747402 7.49850618,8.03860702 8.29077957,6.66253841 C9.08305297,5.28646981 9.08101991,3.59225716 8.28544624,2.21809397 C7.48987257,0.843930781 6.02162484,-0.00141486687 4.43377778,0.000487335286 L4.43377778,0.000487335286 Z" id="路径" fill="#F6AB16"></path>
                                    <path d="M4.43377778,0.000490549614 C6.95022222,-0.0377316726 8.93422222,2.16404611 8.87822222,4.37204611 L8.87822222,4.44493499 L8.88888889,4.44493499 C8.88888889,5.67223444 9.88381167,6.66715722 11.1111111,6.66715722 L11.1111111,8.88937944 C8.68503794,8.88971373 6.70693946,6.94445168 6.66666667,4.51871277 L6.66666667,4.44493499 L6.656,4.44493499 C6.656,3.21763555 5.66107722,2.22271277 4.43377778,2.22271277 L4.43377778,0.000490549614 Z" id="形状结合-2" fill="url(#linearGradient-2)"></path>
                                </g>
                                <circle id="椭圆形" fill="url(#linearGradient-3)" cx="1.11111111" cy="1.11160166" r="1"></circle>
                            </g>
                        </g>
                    </g>
                </g>
            </g>
        </g>
    </g>
</svg>