<?xml version="1.0" encoding="UTF-8"?>
<svg width="64px" height="64px" viewBox="0 0 64 64" version="1.1" xmlns="http://www.w3.org/2000/svg" xmlns:xlink="http://www.w3.org/1999/xlink">
    <title>case编组 13</title>
    <g id="页面-1" stroke="none" stroke-width="1" fill="none" fill-rule="evenodd">
        <g id="A-平台产品线门户首页" transform="translate(-1329.000000, -2304.000000)">
            <g id="行业案例" transform="translate(529.000000, 2172.000000)">
                <g id="编组-17" transform="translate(0.000000, 132.000000)">
                    <g id="编组-13" transform="translate(800.000000, 0.000000)">
                        <rect id="矩形" stroke="#979797" fill="#D8D8D8" opacity="0" x="0" y="0" width="64" height="64"></rect>
                        <g id="编组" transform="translate(8.000000, 8.000000)" fill-rule="nonzero">
                            <path d="M18.1747573,48 L4.19417475,48 C1.86407765,48 0,46.1359223 0,43.8058252 L0,29.8252427 C0,27.4951456 1.86407765,25.631068 4.19417475,25.631068 L18.1747573,25.631068 C20.5048544,25.631068 22.368932,27.4951456 22.368932,29.8252427 L22.368932,43.8058252 C22.1359223,46.1359223 20.5048544,48 18.1747573,48 Z M4.19417475,29.3592233 C3.96116503,29.3592233 3.72815536,29.592233 3.72815536,29.8252427 L3.72815536,43.8058252 C3.72815536,44.038835 3.96116508,44.2718446 4.19417475,44.2718446 L18.1747573,44.2718446 C18.407767,44.2718446 18.6407767,44.0388349 18.6407767,43.8058252 L18.6407767,29.8252427 C18.6407767,29.592233 18.407767,29.3592233 18.1747573,29.3592233 L4.19417475,29.3592233 Z M43.8058252,22.368932 L29.8252427,22.368932 C27.4951456,22.368932 25.631068,20.5048544 25.631068,18.1747573 L25.631068,4.19417475 C25.631068,1.86407765 27.4951456,0 29.8252427,0 L43.8058252,0 C46.1359223,0 48,1.86407765 48,4.19417475 L48,18.1747573 C47.7669903,20.5048544 46.1359223,22.368932 43.8058252,22.368932 Z M29.8252427,3.72815536 C29.592233,3.72815536 29.3592233,3.96116508 29.3592233,4.19417475 L29.3592233,18.1747573 C29.3592233,18.407767 29.592233,18.6407767 29.8252427,18.6407767 L43.8058252,18.6407767 C44.038835,18.6407767 44.2718446,18.407767 44.2718446,18.1747573 L44.2718446,4.19417475 C44.2718446,3.96116503 44.0388349,3.72815536 43.8058252,3.72815536 L29.8252427,3.72815536 Z" id="形状" fill="#0091FF"></path>
                            <path d="M36.815534,25.8640777 C43.1067961,25.8640777 48,30.7572815 48,36.815534 C48,42.8737864 42.8737864,48 36.815534,48 C30.7572816,48 25.631068,43.1067961 25.631068,36.815534 C25.631068,30.5242719 30.5242719,25.8640777 36.815534,25.8640777 Z M36.815534,29.3592233 C32.6213592,29.3592233 29.3592233,32.8543689 29.3592233,36.815534 C29.3592233,40.7766991 32.8543689,44.2718446 36.815534,44.2718446 C40.7766991,44.2718446 44.2718446,40.776699 44.2718446,36.815534 C44.2718446,32.854369 41.0097087,29.3592233 36.815534,29.3592233 Z" id="形状结合" fill="#147BD1"></path>
                            <path d="M18.1747573,0 C20.5048544,0 22.368932,1.86407765 22.368932,4.19417475 L22.368932,18.1747573 C22.1359223,20.5048544 20.5048544,22.368932 18.1747573,22.368932 L4.19417475,22.368932 C1.86407765,22.368932 0,20.5048544 0,18.1747573 L0,4.19417475 C0,1.86407765 1.86407765,0 4.19417475,0 L18.1747573,0 Z M18.1747573,3.72815536 L4.19417475,3.72815536 C3.96116503,3.72815536 3.72815536,3.96116508 3.72815536,4.19417475 L3.72815536,18.1747573 C3.72815536,18.407767 3.96116508,18.6407767 4.19417475,18.6407767 L18.1747573,18.6407767 C18.407767,18.6407767 18.6407767,18.407767 18.6407767,18.1747573 L18.6407767,4.19417475 C18.6407767,3.96116503 18.407767,3.72815536 18.1747573,3.72815536 Z" id="形状结合" fill="#C4C4C4"></path>
                        </g>
                    </g>
                </g>
            </g>
        </g>
    </g>
</svg>