<?xml version="1.0" encoding="UTF-8"?>
<svg width="64px" height="64px" viewBox="0 0 64 64" version="1.1" xmlns="http://www.w3.org/2000/svg" xmlns:xlink="http://www.w3.org/1999/xlink">
    <title>case编组 6</title>
    <g id="页面-1" stroke="none" stroke-width="1" fill="none" fill-rule="evenodd">
        <g id="A-平台产品线门户首页" transform="translate(-849.000000, -2304.000000)">
            <g id="行业案例" transform="translate(529.000000, 2172.000000)">
                <g id="编组-17" transform="translate(0.000000, 132.000000)">
                    <g id="编组-6" transform="translate(320.000000, 0.000000)">
                        <rect id="矩形" stroke="#979797" fill="#D8D8D8" opacity="0" x="0" y="0" width="64" height="64"></rect>
                        <g id="邮政" transform="translate(5.333333, 5.333333)">
                            <path d="M26.5793259,0 C32.7163689,0.122401902 38.1717275,1.97161217 42.9905963,5.6643834 C43.1468366,5.78154236 43.2964594,5.90727582 43.4387755,6.04100464 C43.9735777,6.57204058 44.7851965,7.06353129 44.0263047,7.9467081 C43.3182567,8.77339171 42.6591696,8.25742062 42.0302121,7.75839748 C40.9234393,6.85578381 39.7358249,6.05710683 38.4824401,5.37250194 C38.1321823,5.18419132 37.7480286,4.91302403 37.416602,5.22185345 C36.5428407,6.03347221 35.6728456,6.87145446 35.1870042,7.99566886 C34.9365511,8.57189935 35.2152508,9.04079279 35.6201187,9.45130994 C36.1191418,9.95974861 36.264141,10.5303298 35.7349881,11.0820799 C35.1361604,11.7072711 34.5542806,11.4323376 34.0157122,10.94273 C32.6787068,9.73189276 32.4131888,8.20281054 33.3528588,6.6699621 C33.8173037,5.95876522 34.3327453,5.28220885 34.8951228,4.64562296 C35.3338865,4.12400254 35.1813549,3.83023798 34.6088906,3.62874562 C34.2096721,3.48939576 33.8048043,3.35757833 33.3999365,3.23329332 C32.6787068,3.01296989 32.2342937,3.06946308 31.9650096,3.98653579 C31.5281289,5.46477414 29.7316456,6.66242968 28.2195114,6.65489725 C26.7506885,6.65489725 25.7714733,5.84516159 25.1519314,4.56464939 C24.9873508,4.25932984 24.8982453,3.91905004 24.8920627,3.57225243 C24.9598546,2.47816774 24.4269355,2.28797401 23.4740838,2.41790834 C22.4647389,2.55537509 22.1916885,3.03745027 22.3668173,3.99971753 C22.555128,5.01847798 23.0146059,5.89600546 23.5475249,6.74340324 C24.3106543,7.96507079 24.6335468,9.41077854 24.4627145,10.8410423 C24.2744039,12.9369395 22.6605819,14.1609585 20.5816327,13.7485582 C20.2050114,13.673234 19.8283902,13.6110915 19.451769,13.4999882 C18.3633336,13.1704446 17.8341808,13.477391 17.6402208,14.684462 C17.3671704,16.3792576 15.4708825,17.379187 13.565179,16.9912671 C13.1490126,16.9065273 12.7403785,16.7860085 12.322329,16.7088012 C12.1151873,16.671139 11.8383707,16.5562696 11.7310336,16.8556834 C11.6331121,17.1268507 11.8760328,17.2774992 12.0492786,17.4111998 C13.3674529,18.4356095 14.6856272,19.4261234 16.5329544,19.1982675 C17.3805719,19.0929282 18.2409597,19.1732482 19.0544336,19.4336558 C20.7492291,19.968458 21.5514324,20.874232 21.7623403,22.6349363 C21.9807806,24.4615493 22.6285691,24.8475861 24.3195984,24.1056423 C25.4099169,23.6273333 26.4814043,23.3128546 27.6734106,23.7723325 C28.2967187,24.0133701 28.6865217,24.3617447 28.5697691,25.0471953 C28.4530165,25.732646 27.9445779,26.0452416 27.2892569,25.8889438 C26.2667302,25.6479062 25.4061507,26.0621896 24.5003766,26.3992656 C22.0523386,27.3125721 19.8039098,25.8719959 19.6438458,23.2977897 C19.5647553,22.0304592 19.1372902,21.5747475 17.8793753,21.4636443 C17.4174989,21.4191237 16.9528756,21.4103098 16.4896429,21.4372808 C13.7704376,21.6255914 11.7818775,20.1981969 9.9609138,18.4638561 C9.14411484,17.6908061 8.94169436,16.4685866 9.46565687,15.4734835 C10.0305887,14.4302427 10.9627263,14.2249841 12.039863,14.3681002 C12.8044041,14.4697879 13.5199845,14.8012146 14.2995904,14.8143963 C15.035885,14.8275781 15.4426359,14.5225149 15.6177648,13.8050514 C16.1939953,11.4869477 17.5253513,10.6979262 19.8001436,11.2647412 C20.534555,11.4530518 21.4403291,11.9388932 21.9600664,11.2534426 C22.5965563,10.4135772 22.3762329,9.3176094 21.9186381,8.38170562 C21.3800697,7.27632229 20.6983853,6.24626321 20.3594261,5.03730904 C19.8302733,3.15420286 19.7944943,3.15420286 17.926453,3.86225078 C12.6160935,5.89600546 8.53728552,9.39293364 5.5770426,14.240049 C5.08366878,15.0460184 5.09873363,15.6881576 5.56009465,16.475296 C6.89521693,18.7519714 8.2849493,20.9646211 10.6143516,22.3938987 C11.2998023,22.8119483 11.6368783,23.5501259 11.7065532,24.3542123 C11.7636405,25.0085352 11.77748,25.6659125 11.7479816,26.3220582 C11.6707742,27.9019843 12.1377845,29.0921074 13.759139,29.6909352 C14.6780948,30.0298943 15.3654285,30.7228774 15.8493868,31.6079373 C16.1789304,32.2105313 16.0019184,32.6681261 15.5198433,33.0202669 C15.0377681,33.3724078 14.4728362,33.3347457 14.1621237,32.8809171 C13.5331662,31.9600781 12.5690159,31.5778076 11.6688911,31.0656027 C10.2998729,30.2878799 9.55604597,29.0412636 9.68974651,27.5215969 C9.87805713,25.4087517 9.2622814,23.8853188 7.44885015,22.6669491 C6.17587037,21.8101358 5.39061509,20.3846244 4.54698352,19.0890474 C4.3586729,18.8122308 4.24945274,18.3602853 3.85964976,18.4148954 C3.46984678,18.4695054 3.43971708,18.9101523 3.33802935,19.2359297 C2.56570321,21.7089528 2.16524769,24.2830378 2.14978935,26.8738083 C2.14978935,27.2918579 2.21946428,27.7306217 1.84849236,28.0658146 C1.52708969,28.3621688 1.06356457,28.4465128 0.658369251,28.2823718 C0.0538921663,28.0940612 0.00304829937,27.5479604 0.00116519319,27.0508203 C-0.0138996563,24.881482 0.112268458,22.7196761 0.66401857,20.6105972 C3.02731683,11.6018172 8.48455855,5.27269731 17.1506132,1.78518466 C20.1937128,0.564931855 23.3855778,0.0527269731 26.5793259,0 Z M28.3946402,2.25972742 C27.9087988,2.54031024 27.0651673,1.74563943 26.9032201,2.82465928 C26.8462006,3.21195227 26.9498888,3.6057278 27.1902515,3.91471468 C27.4306141,4.22370156 27.7867817,4.42107201 28.1761999,4.46107855 C28.9294424,4.5062731 30.0856696,3.67205706 30.0329426,3.02991785 C29.9406704,1.84732717 28.9124944,2.63634866 28.3946402,2.25972742 L28.3946402,2.25972742 Z" id="形状" fill="#147BD1"></path>
                            <path d="M53.1989149,19.0513853 C53.1989149,22.0285761 53.1989149,25.0038839 53.1989149,27.9810748 C53.1989149,28.5460066 53.1631359,29.0864581 52.5756067,29.3557423 C51.9334675,29.6532731 51.4702234,29.297366 51.0446414,28.8642516 C50.0691924,27.8718546 49.0730292,26.9001718 48.129593,25.8795283 C47.6004402,25.3145964 47.2577149,25.271285 46.6438223,25.8531648 C42.6572865,29.6193772 38.4975049,33.1972789 33.7501942,36.0031071 C27.6602288,39.5998399 21.2105901,42.136384 14.0284232,42.3228115 C9.91195304,42.4301485 6.13255893,41.5111927 3.12900456,38.447379 C1.75622016,37.0406986 0.839147445,35.3515524 0.200774449,33.5192901 C-0.00636723155,32.9204623 -0.222924443,32.2011157 0.535967349,31.7604689 C1.35700165,31.2727444 1.85414168,31.8414425 2.28160678,32.3931926 C4.97256552,35.7790175 8.42241605,37.4945272 12.8044041,37.0237507 C15.7269849,36.7073888 18.406645,35.5944731 20.9488384,34.1802603 C27.565522,30.4852233 33.606393,25.8425963 38.8797755,20.3996893 C39.6330179,19.6464468 39.4673046,19.2265141 38.6312054,18.7557376 C37.5559518,18.1512605 36.5221265,17.4752254 35.4619377,16.8425017 C34.9986936,16.5656851 34.6710331,16.226726 34.7312925,15.6391969 C34.7915519,15.0516677 35.1719394,14.7936822 35.6822612,14.6034885 C40.9210626,12.6582398 46.1485653,10.6809783 51.3948992,8.76585928 C52.6302168,8.3139138 53.1989149,8.78845656 53.2026811,10.1311113 C53.2026811,13.0988866 53.1970318,16.0741944 53.1989149,19.0513853 Z M38.392051,15.9593249 C38.5050266,16.0740385 38.624486,16.1821806 38.7498411,16.2832192 C39.6022605,16.8129997 40.4559353,17.3396417 41.3108655,17.8631453 C42.8173505,18.7915166 42.896441,19.3263188 41.6347598,20.6294282 C40.3730787,21.9325377 39.1113975,23.2431796 37.7951063,24.4935621 C32.3868253,29.6306758 26.4286774,34.0013653 19.6815079,37.225243 C15.9830874,38.9934797 12.1114211,39.8126309 8.03826239,38.9200386 C8.46384438,39.3192571 8.46761059,39.3079585 8.93085472,39.4699056 C12.0737589,40.5658734 15.2693901,40.328602 18.4348916,39.7109432 C24.2273262,38.5810795 29.5452181,36.2573265 34.4412942,32.9882541 C38.6362043,30.1521302 42.5367254,26.9032731 46.0845397,23.2902573 C47.1051833,22.2658475 47.5721936,22.2677306 48.6022527,23.2695431 C49.0730292,23.729021 49.5212085,24.2110962 49.9901019,24.6705741 C50.2292564,24.9059624 50.4326319,25.3315444 50.80737,25.2110256 C51.2273027,25.0735588 51.0446414,24.6084316 51.0465245,24.2901867 C51.0578232,20.3846244 51.0578232,16.4790622 51.0465245,12.5735 C51.0465245,11.3739613 50.8845774,11.2703905 49.7716616,11.6827908 C47.6757644,12.4567474 45.5704517,13.2250547 43.482087,14.01031 C41.8306029,14.6298519 40.1885343,15.270108 38.392051,15.9593249 Z" id="形状" fill="#73BFFF"></path>
                            <path d="M26.7393899,53.3333333 C20.4667632,53.1864511 15.0038722,51.3485394 10.1906528,47.6425864 C10.1605231,47.6181061 10.1341596,47.5879764 10.1040299,47.5653791 C9.47695551,47.0870701 8.92332229,46.5070734 9.52591627,45.7331168 C10.1285102,44.9591601 10.8120778,45.3056517 11.4466846,45.8103241 C13.2049247,47.1996684 15.14333,48.3443411 17.2089895,49.213097 C26.1499777,53.0282701 37.0644611,50.843867 43.8756562,43.8952051 C44.440588,43.3302733 44.6288986,42.9668338 43.8342278,42.3887202 C42.7344938,41.5733352 42.3691712,39.9670456 42.9341031,38.6036768 C43.2626083,37.861613 43.3328884,37.0308487 43.1337123,36.2441447 C42.7815715,34.7809712 43.305075,33.6680555 44.5309771,32.8545536 C45.3162324,32.3385825 46.0261634,31.815079 46.2107078,30.7737213 C46.2529717,30.4987004 46.4075066,30.2535654 46.6374189,30.0968394 C46.8673312,29.9401135 47.1519871,29.8858623 47.4234282,29.9470376 C48.0712167,30.0788551 48.3856955,30.5759951 48.3348516,31.2388485 C48.2517153,32.421603 47.600321,33.4906477 46.5873291,34.1068192 C45.4894782,34.7998023 44.9094815,35.451357 45.4951275,36.799661 C45.8397359,37.5905656 45.4198032,38.4003013 45.0883765,39.1384789 C44.7569499,39.8766565 44.777664,40.5319775 45.5422051,40.9236636 C46.3971353,41.3643104 46.6325236,40.6223666 46.9884307,40.0743827 C48.3103209,38.0770619 49.330036,35.8954935 50.0145823,33.6002636 C50.2443213,32.8131253 50.7546431,32.3687122 51.570028,32.6718923 C52.2592449,32.9261116 52.3552833,33.5061083 52.1349599,34.2009745 C49.1954311,43.3679354 43.1092319,49.3562131 33.9460373,52.2354824 C31.5318951,52.9924911 29.0386625,53.2523598 26.7393899,53.3333333 Z" id="路径" fill="#147BD1"></path>
                            <path d="M20.2313749,47.9250524 C18.8799364,47.937602 17.688058,47.0421493 17.323859,45.7406492 C17.1750936,45.1757173 17.0658734,44.5411106 17.7663889,44.2454629 C18.5083328,43.9328673 19.0130052,44.2454629 19.3124191,44.9798743 C19.5289763,45.5052609 19.8491044,45.9459078 20.5176071,45.8065579 C21.1861098,45.6672081 21.3254596,45.1719511 21.3122779,44.584422 C21.2953299,43.8311795 21.5928607,43.2492997 22.4101288,43.2662477 C23.2273969,43.2831956 23.425123,43.9535814 23.4477203,44.6635125 C23.5004473,46.623826 22.2199351,47.9175199 20.2313749,47.9250524 Z" id="路径" fill="#C4C4C4"></path>
                        </g>
                    </g>
                </g>
            </g>
        </g>
    </g>
</svg>