<?xml version="1.0" encoding="UTF-8"?>
<svg width="64px" height="64px" viewBox="0 0 64 64" version="1.1" xmlns="http://www.w3.org/2000/svg" xmlns:xlink="http://www.w3.org/1999/xlink">
    <title>case编组 4</title>
    <g id="页面-1" stroke="none" stroke-width="1" fill="none" fill-rule="evenodd">
        <g id="A-平台产品线门户首页" transform="translate(-689.000000, -2304.000000)">
            <g id="行业案例" transform="translate(529.000000, 2172.000000)">
                <g id="编组-17" transform="translate(0.000000, 132.000000)">
                    <g id="编组-4" transform="translate(160.000000, 0.000000)">
                        <rect id="矩形" stroke="#979797" fill="#D8D8D8" opacity="0" x="0" y="0" width="64" height="64"></rect>
                        <g id="编组" transform="translate(4.000000, 6.000000)" fill-rule="nonzero">
                            <path d="M53.6875,49.0001555 L52,49.0001555 L52,1.66640553 C52,0.734530528 51.214375,7.6345989e-05 50.2825,7.6345989e-05 L38.125,7.6345989e-05 C37.6798135,-0.00417527114 37.2512996,0.169301986 36.9345019,0.482110311 C36.6177043,0.794918636 36.4388109,1.22119988 36.4375,1.66640553 L36.4375,21.3751555 L26.088125,21.3751555 C26.1534803,21.1824922 26.1870441,20.9804765 26.1875,20.7770305 L26.1875,17.1876555 L32.3125,17.1876555 C32.7581031,17.1926627 33.1871981,17.0192333 33.5041798,16.7060084 C33.8211615,16.3927835 33.9996943,15.9657867 34,15.5201555 L34,9.89515553 C34,8.96328053 33.246875,8.18765553 32.3125,8.18765553 L24.5,8.18765553 C23.5643641,8.1975981 22.8114186,8.95946741 22.8125,9.89515553 L22.8125,20.7764055 C22.8133585,20.9799203 22.8473447,21.1819378 22.913125,21.3745305 L18.9375,21.3745305 L18.9375,1.66640553 C18.9361891,1.22119988 18.7572957,0.794918636 18.4404981,0.482110311 C18.1237004,0.169301986 17.6951865,-0.00417527114 17.25,7.6345989e-05 L5.0925,7.6345989e-05 C4.160625,7.6345989e-05 3.375,0.734530528 3.375,1.66640553 L3.375,49.0001555 L1.6875,49.0001555 C0.755519485,49.0001555 0,49.755675 0,50.6876555 C0,51.619636 0.755519485,52.3752091 1.6875,52.3752091 L6.18,52.3752091 C6.6589061,52.3787394 7.11650886,52.1774579 7.4375,51.8220305 L8.349375,50.8126555 L10.0625,50.8126555 C10.4945148,50.8145992 10.9107357,50.6503486 11.225,50.3539055 L12.7875,48.8751555 L42.58875,48.8751555 L44.15125,50.3539055 C44.4651658,50.6501053 44.8809046,50.8143422 45.3125,50.8126555 L47.045,50.8126555 L47.924375,51.8082805 C48.2458919,52.1722571 48.7093695,52.3790323 49.195,52.3752091 L53.6875,52.3752091 C54.6194805,52.3752091 55.375,51.619636 55.375,50.6876555 C55.375,49.755675 54.6194805,49.0001555 53.6875,49.0001555 Z M30.625,13.8126555 L26.1875,13.8126555 L26.1875,11.5626555 L30.625,11.5626555 L30.625,13.8126555 Z M40.875,45.5001555 L39.125,45.5001555 L39.125,38.0864055 C39.125,37.1545305 38.369375,36.3757805 37.4375,36.3757805 L17.9375,36.3757805 C17.005625,36.3757805 16.25,37.1545305 16.25,38.0870305 L16.25,45.5001555 L14.5,45.5001555 L14.5,34.5001555 L40.875,34.5001555 L40.875,45.5001555 Z M36.4375,24.7501555 L36.4375,31.1251555 L18.9375,31.1251555 L18.9375,24.7501555 L36.4375,24.7501555 Z M9.38875,47.4376555 L7.59375,47.4376555 C7.29962712,47.4381589 7.01004515,47.5102327 6.75,47.6476555 L6.75,3.37515553 L15.5625,3.37515553 L15.5625,31.1251555 L9.4425,31.1251555 C8.51051948,31.1251555 7.755,31.880675 7.755,32.8126555 C7.755,33.744636 8.51051948,34.5001555 9.4425,34.5001555 L11.125,34.5001555 L11.125,45.7920305 C11.0625,45.8407805 11,45.8945305 10.9375,45.9539055 L9.38875,47.4376555 Z M19.625,45.5001555 L19.625,39.7501555 L35.75,39.7501555 L35.75,45.5001555 L19.625,45.5001555 Z M47.8125,47.4376555 L45.9875,47.4376555 L44.4375,45.9539055 C44.375,45.8914055 44.3125,45.8401555 44.25,45.7914055 L44.25,34.5001555 L45.9325,34.5001555 C46.8644805,34.5001555 47.62,33.744636 47.62,32.8126555 C47.62,31.880675 46.8644805,31.1251555 45.9325,31.1251555 L39.8125,31.1251555 L39.8125,3.37515553 L48.625,3.37515553 L48.625,47.6314055 C48.3725471,47.5055375 48.0945863,47.4392545 47.8125,47.4376555 Z" id="形状" fill="#147BD1"></path>
                            <path d="M11.125,12.4026555 C12.0569805,12.4026555 12.8125,11.647136 12.8125,10.7151555 L12.8125,7.33015553 C12.8125,6.39817501 12.0569805,5.64265553 11.125,5.64265553 C10.1930195,5.64265553 9.4375,6.39817501 9.4375,7.33015553 L9.4375,10.7151555 C9.4375,11.647136 10.1930195,12.4026555 11.125,12.4026555 L11.125,12.4026555 Z M11.125,20.6139055 C12.0569805,20.6139055 12.8125,19.858386 12.8125,18.9264055 L12.8125,15.5414055 C12.8125,14.609425 12.0569805,13.8539055 11.125,13.8539055 C10.1930195,13.8539055 9.4375,14.609425 9.4375,15.5414055 L9.4375,18.9264055 C9.4375,19.858386 10.1930195,20.6139055 11.125,20.6139055 L11.125,20.6139055 Z M11.125,28.8257805 C12.0569805,28.8257805 12.8125,28.070261 12.8125,27.1382805 L12.8125,23.7501555 C12.8125,22.818175 12.0569805,22.0626555 11.125,22.0626555 C10.1930195,22.0626555 9.4374971,22.818175 9.4374971,23.7501555 L9.4374971,27.1351555 C9.43667019,27.5832496 9.61409347,28.013275 9.93065109,28.3304189 C10.2472087,28.6475627 10.6769052,28.8257805 11.125,28.8257805 L11.125,28.8257805 Z M44.1875,5.64265553 C43.2555195,5.64265553 42.5,6.39817501 42.5,7.33015553 L42.5,10.7151555 C42.5,11.647136 43.2555195,12.4026555 44.1875,12.4026555 C45.1194805,12.4026555 45.875,11.647136 45.875,10.7151555 L45.875,7.33015553 C45.875,6.39817501 45.1194805,5.64265553 44.1875,5.64265553 L44.1875,5.64265553 Z M44.1875,13.8539055 C43.2555195,13.8539055 42.5,14.609425 42.5,15.5414055 L42.5,18.9264055 C42.5,19.858386 43.2555195,20.6139055 44.1875,20.6139055 C45.1194805,20.6139055 45.875,19.858386 45.875,18.9264055 L45.875,15.5414055 C45.875,14.609425 45.1194805,13.8539055 44.1875,13.8539055 L44.1875,13.8539055 Z M44.1875,22.0626555 C43.2555195,22.0626555 42.5,22.818175 42.5,23.7501555 L42.5,27.1351555 C42.5,28.067136 43.2555195,28.8226555 44.1875,28.8226555 C45.1194805,28.8226555 45.875,28.067136 45.875,27.1351555 L45.875,23.7501555 C45.875,22.818175 45.1194805,22.0626555 44.1875,22.0626555 Z" id="形状" fill="#73BFFF"></path>
                            <path d="M24.325625,29.6668222 L31.049375,29.6668222 C31.9813555,29.6668222 32.736875,28.9113027 32.736875,27.9793222 C32.736875,27.0473417 31.9813555,26.2918222 31.049375,26.2918222 L24.325625,26.2918222 C23.3936445,26.2918222 22.638125,27.0473417 22.638125,27.9793222 C22.638125,28.9113027 23.3936445,29.6668222 24.325625,29.6668222 L24.325625,29.6668222 Z" id="路径" fill="#C4C4C4"></path>
                        </g>
                    </g>
                </g>
            </g>
        </g>
    </g>
</svg>