<?xml version="1.0" encoding="UTF-8"?>
<svg width="64px" height="64px" viewBox="0 0 64 64" version="1.1" xmlns="http://www.w3.org/2000/svg" xmlns:xlink="http://www.w3.org/1999/xlink">
    <title>case编组 3</title>
    <defs>
        <path d="M18.37751,21.4572576 L18.37751,57.0005737 C18.37751,57.9207315 19.1686535,58.6666667 20.1445783,58.6666667 C21.1205032,58.6666667 21.9116466,57.9207315 21.9116466,57.0005737 L21.9116466,21.4572576 C21.9116466,20.5370999 21.1205032,19.7911647 20.1445783,19.7911647 C19.1686535,19.7911647 18.37751,20.5370999 18.37751,21.4572576 L18.37751,21.4572576 Z" id="path-1"></path>
    </defs>
    <g id="页面-1" stroke="none" stroke-width="1" fill="none" fill-rule="evenodd">
        <g id="A-平台产品线门户首页" transform="translate(-529.000000, -2304.000000)">
            <g id="行业案例" transform="translate(529.000000, 2172.000000)">
                <g id="编组-3" transform="translate(0.000000, 132.000000)">
                    <rect id="矩形" stroke="#979797" fill="#D8D8D8" opacity="0" x="0" y="0" width="64" height="64"></rect>
                    <g id="编组" transform="translate(12.000000, 2.666667)" fill-rule="nonzero">
                        <path d="M20.3014182,17.8341802 L20.5109518,17.7519855 C21.298328,17.4985452 22.1505958,17.8694111 22.5070342,18.6205844 L22.588642,18.8316251 L33.8527228,54.3753153 C34.1098084,55.2077372 33.686321,56.0990331 32.8814177,56.4195803 C32.0765144,56.7401274 31.1623539,56.3815403 30.784711,55.5971296 L30.7031031,55.3883104 L20.1470251,22.0816512 L9.59094707,55.3883104 C9.33890713,56.1805278 8.54530158,56.6640984 7.73161278,56.5212655 L7.51105116,56.46795 C6.72449145,56.2140972 6.24437424,55.4147834 6.38618702,54.5952419 L6.44132741,54.3730938 L17.7054082,18.8294036 C17.8603679,18.3412524 18.2297587,17.9520905 18.7069697,17.7742351 C19.1841808,17.5963796 19.7161081,17.6496223 20.1492307,17.9185965 L20.3014182,17.8341802 L20.5109518,17.7519855 L20.3014182,17.8341802 Z" id="路径" fill="#147BD1"></path>
                        <g id="路径">
                            <use fill="#1A9DF5" xlink:href="#path-1"></use>
                            <use fill="#73BFFF" xlink:href="#path-1"></use>
                        </g>
                        <path d="M11.3092369,15.1967871 C11.3092369,20.0764114 15.264954,24.0321285 20.1445783,24.0321285 C25.0242026,24.0321285 28.9799197,20.0764114 28.9799197,15.1967871 C28.9799197,10.3171629 25.0242026,6.36144578 20.1445783,6.36144578 C15.264954,6.36144578 11.3092369,10.3171629 11.3092369,15.1967871 L11.3092369,15.1967871 Z" id="路径" fill="#FFFFFF"></path>
                        <path d="M20.1445783,21.2048193 C23.4627228,21.2048193 26.1526104,18.5149317 26.1526104,15.1967871 C26.1526104,11.8786426 23.4627228,9.18875502 20.1445783,9.18875502 C16.8264338,9.18875502 14.1365462,11.8786426 14.1365462,15.1967871 C14.1365462,18.5149317 16.8264338,21.2048193 20.1445783,21.2048193 Z M20.1445783,17.9277108 C18.6363308,17.9277108 17.4136546,16.7050347 17.4136546,15.1967871 C17.4136546,13.6885396 18.6363308,12.4658635 20.1445783,12.4658635 C21.6528258,12.4658635 22.875502,13.6885396 22.875502,15.1967871 C22.875502,16.7050347 21.6528258,17.9277108 20.1445783,17.9277108 L20.1445783,17.9277108 Z" id="形状" fill="#73BFFF"></path>
                        <path d="M9.80378433,47.1484513 C9.39604275,47.3756103 9.17237573,47.8316758 9.24266047,48.292604 C9.31294522,48.7535323 9.6624104,49.1224526 10.11938,49.2181317 L31.2441448,53.6882837 C31.6397428,53.782617 32.0554506,53.6552065 32.3299339,53.3554997 C32.6044172,53.0557928 32.6944607,52.6309761 32.5651191,52.245919 C32.4357774,51.8608618 32.1074143,51.5761885 31.7074661,51.5023794 L13.496925,47.6491083 L27.4055168,39.8799841 C27.7281958,39.6991956 27.940536,39.3708336 27.9727822,39.0027674 C28.0050284,38.6347012 27.8530121,38.274509 27.566672,38.0405165 L16.7961308,29.2387872 C16.3169807,28.8595741 15.6217449,28.9345262 15.2346893,29.4071232 C14.8476337,29.8797203 14.9120254,30.5750323 15.3793077,30.968736 L24.8785132,38.731155 L9.8060226,47.1484513 L9.80378433,47.1484513 Z" id="形状" fill="#C4C4C4"></path>
                        <path d="M9.06515622,0.654400001 C9.93893526,1.52719685 9.93893526,2.94200062 9.06515622,3.81479747 C6.12651489,6.74894978 4.47557816,10.728694 4.47557816,14.8784238 C4.47557816,19.0281535 6.12651489,23.0078977 9.06515622,25.9420501 C9.91339746,26.8190467 9.9012665,28.2130769 9.03789114,29.0752214 C8.17451577,29.9373658 6.77849522,29.9494794 5.90024651,29.1024475 C2.12238461,25.3300179 0,20.2134776 0,14.8784238 C0,9.54336994 2.12238461,4.42682963 5.90024651,0.654400001 C6.77428948,-0.218133334 8.19111325,-0.218133334 9.06515622,0.654400001 L9.06515622,0.654400001 Z" id="路径" fill="#147BD1"></path>
                        <path d="M34.3889101,0.654400001 C38.166772,4.42682963 40.2891566,9.54336994 40.2891566,14.8784238 C40.2891566,20.2134776 38.166772,25.3300179 34.3889101,29.1024475 C33.5106614,29.9494794 32.1146409,29.9373658 31.2512655,29.0752214 C30.3878901,28.2130769 30.3757592,26.8190467 31.2240004,25.9420501 C34.1626417,23.0078977 35.8135785,19.0281535 35.8135785,14.8784238 C35.8135785,10.728694 34.1626417,6.74894978 31.2240004,3.81479747 C30.3757592,2.93780086 30.3878901,1.5437706 31.2512655,0.681626155 C32.1146409,-0.18051829 33.5106614,-0.192631922 34.3889101,0.654400001 Z" id="路径" fill="#147BD1"></path>
                        <path d="M13.1395443,6.18164504 C13.7867874,6.83080077 13.7867874,7.88243412 13.1395443,8.53158984 C11.3751977,10.2986013 10.3839688,12.6953923 10.3839688,15.1945702 C10.3839688,17.6937482 11.3751977,20.0905391 13.1395443,21.8575506 C13.5836195,22.2720512 13.7664165,22.8963049 13.6162241,23.4854167 C13.4660317,24.0745286 13.0068041,24.5345403 12.4186967,24.6849893 C11.8305893,24.8354382 11.2073998,24.6523289 10.7936059,24.2074954 C5.82649548,19.2297871 5.82649548,11.1615703 10.7936059,6.18386198 C11.4416549,5.53551354 12.4914954,5.53551354 13.1395443,6.18386198 L13.1395443,6.18164504 Z M28.7865106,6.18164504 C31.1732094,8.57225995 32.5140562,11.8147256 32.5140562,15.1956787 C32.5140562,18.5766318 31.1732094,21.8190974 28.7865106,24.2097123 C28.3727167,24.6545459 27.7495273,24.8376551 27.1614199,24.6872062 C26.5733124,24.5367573 26.1140849,24.0767455 25.9638925,23.4876337 C25.8137001,22.8985218 25.9964971,22.2742681 26.4405722,21.8597675 C28.2049189,20.092756 29.1961477,17.6959651 29.1961477,15.1967871 C29.1961477,12.6976092 28.2049189,10.3008183 26.4405722,8.53380678 C25.9964971,8.11930618 25.8137001,7.49505245 25.9638925,6.90594063 C26.1140849,6.31682881 26.5733124,5.85681702 27.1614199,5.70636811 C27.7495273,5.5559192 28.3727167,5.73902843 28.7865106,6.18386198 L28.7865106,6.18164504 Z" id="形状" fill="#43A5EA"></path>
                    </g>
                </g>
            </g>
        </g>
    </g>
</svg>