<?xml version="1.0" encoding="UTF-8"?>
<svg width="64px" height="64px" viewBox="0 0 64 64" version="1.1" xmlns="http://www.w3.org/2000/svg" xmlns:xlink="http://www.w3.org/1999/xlink">
    <title>case编组 11</title>
    <g id="页面-1" stroke="none" stroke-width="1" fill="none" fill-rule="evenodd">
        <g id="A-平台产品线门户首页" transform="translate(-1169.000000, -2304.000000)">
            <g id="行业案例" transform="translate(529.000000, 2172.000000)">
                <g id="编组-17" transform="translate(0.000000, 132.000000)">
                    <g id="编组-11" transform="translate(640.000000, 0.000000)">
                        <rect id="矩形" stroke="#979797" fill="#D8D8D8" opacity="0" x="0" y="0" width="64" height="64"></rect>
                        <g id="编组" transform="translate(7.000000, 4.000000)" fill-rule="nonzero">
                            <path d="M25.2349285,56 C21.3952375,56 17.9003075,52.8903911 15.3788203,47.266055 C13.0804137,42.0878803 11.8230502,35.2535007 11.8230502,28 C11.8230502,20.7464993 13.0804137,13.9121197 15.3788203,8.73394495 C17.9003075,3.10284887 21.4019975,0 25.2349285,0 C29.0678594,0 32.5695494,3.10960888 35.0910366,8.73394495 C37.3894432,13.9121197 38.6468068,20.7464993 38.6468068,28 C38.6468068,35.2535007 37.3894432,42.0878803 35.0910366,47.266055 C32.5695494,52.8903911 29.0678594,56 25.2349285,56 Z M25.2349285,3.49492999 C20.529955,3.49492999 15.3247402,13.5470787 15.3247402,28 C15.3247402,42.4461613 20.5637551,52.49831 25.2349285,52.49831 C29.9399019,52.49831 35.1451168,42.4461613 35.1451168,28 C35.1451168,13.5470787 29.9399019,3.49492999 25.2349285,3.49492999 Z" id="形状" fill="#73BFFF"></path>
                            <path d="M39.7081298,46.3128923 C38.8428474,46.3128923 37.9437648,46.2588122 36.9906021,46.1709319 C31.359506,45.5828102 24.7820072,43.2573636 18.5087093,39.6204732 C12.2354113,35.9768228 6.94231621,31.4746499 3.60962669,26.8778368 C-0.000223627527,21.9227426 -0.946626332,17.3259295 0.979979173,14 C2.90658468,10.6740705 7.33439733,9.18686625 13.4657348,9.82906808 C19.0968309,10.4171898 25.6743297,12.7426364 31.9476277,16.3795268 C38.2209256,19.9893771 43.5140207,24.5253501 46.8467102,29.0951231 C50.4563785,34.0772574 51.4097233,38.6402704 49.4763577,41.9729599 C47.8607131,44.8256881 44.4401433,46.3128923 39.7081298,46.3128923 L39.7081298,46.3128923 Z M10.7549671,13.1820377 C7.3952375,13.1820377 4.98867063,14.0811202 4.00846783,15.757605 C1.6559811,19.8203766 7.76027855,29.3655239 20.2798343,36.5919845 C32.7993901,43.8184452 44.1089024,44.3186866 46.4613891,40.262675 C48.8071158,36.1999034 42.7028184,26.6547562 30.1900226,19.4282955 C24.3358459,16.0415258 18.2585885,13.8850797 13.1074538,13.3239981 C12.2692114,13.2158378 11.4850492,13.1820377 10.7549671,13.1820377 Z" id="形状" fill="#1A9DF5"></path>
                            <path d="M10.7549671,46.3128923 C6.02295358,46.3128923 2.60914383,44.8256881 0.979979173,42 C-0.953386351,38.6673105 -4.1574645e-05,34.0772574 3.60962669,29.1221632 C6.94231621,24.5321101 12.2354113,20.0231772 18.5087093,16.3795268 C24.7820072,12.7696765 31.359506,10.4171898 36.9906021,9.82906808 C43.1219396,9.18686625 47.5497522,10.6673105 49.4763577,14 C51.4164833,17.3259295 50.4633206,21.9227426 46.8467102,26.8778368 C43.5140207,31.4678899 38.2209256,35.9768228 31.9476277,39.6204732 C25.6743297,43.2573636 19.0968309,45.5828102 13.4657348,46.1709319 C12.5193321,46.2520521 11.6202496,46.3128923 10.7549671,46.3128923 Z M39.6810897,13.2158378 C34.7259956,13.2158378 27.6955755,15.1492033 20.2730743,19.4350555 C14.4188976,22.8218252 9.49084349,26.9927571 6.44207478,31.1974891 C3.72454701,34.9492999 2.83222447,38.2549493 4.00846783,40.2694351 C5.18471119,42.2839208 8.49036063,43.1830034 13.0804137,42.703042 C18.2315485,42.1690005 24.3088058,39.9855142 30.1629826,36.5987446 C42.6825383,29.3722839 48.7530357,19.8271366 46.434349,15.764365 C45.5082264,14.1081603 43.0678594,13.2158378 39.6810897,13.2158378 Z" id="形状" fill="#147BD1"></path>
                            <path d="M28.7124956,26.4097803 L24.8402911,26.3970007 L27.3067448,23.930547 C27.8179269,23.4193649 27.8179269,22.6014736 27.3067448,22.0902915 C26.7955627,21.5791093 25.9776713,21.5791093 25.4664892,22.0902915 L20.7763934,26.7803873 C20.4057863,27.1509943 20.2907704,27.7132947 20.4952432,28.1989177 C20.6997161,28.6845407 21.1725595,29.0040295 21.6965212,29.0040295 L25.5687256,29.016809 L23.102272,31.4832627 C22.7316649,31.8538697 22.616649,32.4161701 22.8211218,32.9017931 C23.0255946,33.3874161 23.4984381,33.7069049 24.0223998,33.7069049 C24.3546681,33.7069049 24.6869365,33.5791093 24.9425276,33.3235183 L29.6326234,28.6334224 C30.0032304,28.2628154 30.1182464,27.7005151 29.9137736,27.2148921 C29.6965212,26.7292691 29.2364573,26.4097803 28.7124956,26.4097803 L28.7124956,26.4097803 Z" id="路径" fill="#C4C4C4"></path>
                        </g>
                    </g>
                </g>
            </g>
        </g>
    </g>
</svg>