<?xml version="1.0" encoding="UTF-8"?>
<svg width="64px" height="64px" viewBox="0 0 64 64" version="1.1" xmlns="http://www.w3.org/2000/svg" xmlns:xlink="http://www.w3.org/1999/xlink">
    <title>case编组 9</title>
    <g id="页面-1" stroke="none" stroke-width="1" fill="none" fill-rule="evenodd">
        <g id="A-平台产品线门户首页" transform="translate(-1009.000000, -2304.000000)">
            <g id="行业案例" transform="translate(529.000000, 2172.000000)">
                <g id="编组-17" transform="translate(0.000000, 132.000000)">
                    <g id="编组-9" transform="translate(480.000000, 0.000000)">
                        <rect id="矩形" stroke="#979797" fill="#D8D8D8" opacity="0" x="0" y="0" width="64" height="64"></rect>
                        <g id="编组" transform="translate(4.000000, 4.000000)" fill-rule="nonzero">
                            <path d="M52.5820312,29.0882812 L50.7117187,29.0882812 C49.7109375,23.0453125 45.8664062,17.8554687 40.4578125,14.6617187 C38.4234375,17.4179687 35.1640625,19.2117187 31.4835937,19.2117187 C26.5671875,19.2117187 22.3890625,16.0125 20.9070312,11.59375 L15.2960937,7.34453125 C14.6015625,6.81953125 13.9671875,7.1203125 13.86875,8.01171875 L13.0046875,16.2585937 C10.0679687,18.5226562 7.7765625,21.4429687 6.3765625,24.7734375 L2.66875,24.7734375 C1.203125,24.7625 0,25.965625 0,27.4367187 L0,35.5523437 C0,37.0234375 1.203125,38.2265625 2.66875,38.2265625 L5.82421875,38.2265625 C7.37734375,42.940625 10.7078125,46.9601562 15.115625,49.634375 L15.115625,54.8023437 C15.115625,55.4640625 15.6570312,56 16.3132812,56 L22.1867187,56 C22.8429687,56 23.384375,55.4585937 23.384375,54.8023437 L23.384375,52.7460937 C24.85,53.0140625 26.3703125,53.15625 27.9234375,53.15625 C29.4765625,53.15625 30.996875,53.0140625 32.4625,52.7460937 L32.4625,54.8023437 C32.4625,55.4640625 33.0039062,56 33.6601562,56 L39.5335937,56 C40.1898437,56 40.73125,55.4585937 40.73125,54.8023437 L40.73125,49.634375 C46.2820312,46.265625 50.1265625,40.775 50.8648437,34.4367187 L52.5820312,34.4367187 C54.0585937,34.4367187 55.2507812,33.2390625 55.2507812,31.7625 C55.2507812,30.2859375 54.0585937,29.0882812 52.5820312,29.0882812 Z M15.5476563,26.7421875 C13.9179688,26.7421875 12.5617188,25.6101562 12.1898438,24.1007812 C12.6328125,24.7242187 13.3546875,25.1289062 14.175,25.1289062 C15.5257813,25.1289062 16.6195313,24.0351562 16.6195313,22.684375 C16.6195313,21.3335937 15.5257813,20.2398437 14.175,20.2398437 C14.0601563,20.2398437 13.9453125,20.2617187 13.8304688,20.2726562 C14.3390625,19.9828125 14.91875,19.8023437 15.5476562,19.8023437 C17.4617187,19.8023437 19.0148581,21.3554687 19.0148581,23.275 C19.0203125,25.1835937 17.4671875,26.7421875 15.5476562,26.7421875 L15.5476563,26.7421875 Z" id="形状" fill="#147BD1"></path>
                            <path d="M31.4890625,0 C27.0484375,0 23.4390625,3.609375 23.4390625,8.05 C23.4390625,12.490625 27.0539063,16.1 31.4890625,16.1 C35.9242188,16.1 39.5335938,12.490625 39.5335938,8.05 C39.5335938,3.609375 35.9242188,0 31.4890625,0 Z M32.1398438,12.075 L32.1398438,13.4476562 L30.4882813,13.4476562 L30.4882813,12.1953125 C29.4710938,12.140625 28.4703125,11.8835938 27.9234375,11.6210938 L28.3882813,9.76171875 C29.0390625,10.0570313 29.9414063,10.3523437 30.9421875,10.3523437 C31.6804688,10.3523437 32.2054688,10.1664062 32.2054688,9.72890625 C32.2054688,9.31328125 31.7679688,9.05625 30.6960938,8.75 C29.115625,8.2796875 27.9945313,7.59609375 27.9945313,6.234375 C27.9945313,5.01484375 28.9078125,4.046875 30.5648438,3.740625 L30.5648438,2.49375 L32.2054688,2.49375 L32.2054688,3.63671875 C33.20625,3.6640625 33.8898438,3.85 34.409375,4.06328125 L33.9445313,5.8515625 C33.5507813,5.70390625 32.8398438,5.39765625 31.7570313,5.39765625 C30.8984375,5.39765625 30.6359375,5.6765625 30.6359375,5.97734375 C30.6359375,6.3109375 31.128125,6.56796875 32.3476563,6.95625 C34.1742188,7.51953125 34.8414063,8.28515625 34.8414063,9.51015625 C34.8414063,10.7625 33.884375,11.7796875 32.1398438,12.075 Z" id="形状" fill="#73BFFF"></path>
                        </g>
                    </g>
                </g>
            </g>
        </g>
    </g>
</svg>