<?xml version="1.0" encoding="UTF-8"?>
<svg width="67px" height="67px" viewBox="0 0 67 67" version="1.1" xmlns="http://www.w3.org/2000/svg" xmlns:xlink="http://www.w3.org/1999/xlink">
    <title>编组 4</title>
    <g id="页面-1" stroke="none" stroke-width="1" fill="none" fill-rule="evenodd">
        <g id="B-平台产品产品发展历程" transform="translate(-926.000000, -137.000000)">
            <g id="编组-4" transform="translate(926.000000, 137.000000)">
                <g id="aif-color" transform="translate(18.000000, 21.000000)" fill="#FFFFFF" fill-rule="nonzero">
                    <g id="彩色logo" transform="translate(0.000000, 0.000000)">
                        <path d="M23.6680399,25.3884297 L31.6218627,25.3884297 L27.1096915,17.1368513 C27.1096915,17.1671216 22.2097172,16.2489057 18.6686317,20.7792207 L19.800085,23.0413991 C20.5627804,24.4605339 22.0336928,25.3884297 23.6680399,25.3884297 Z" id="Combined-Shape"></path>
                        <path d="M13.1698196,25.3884297 C13.1698196,25.3884297 16.150643,16.0103591 27.1525912,15.1877213 C27.1525912,15.1877213 28.4629292,15.0762044 28.6701012,15.1328788 C28.6701012,15.1328788 17.8307435,7.29039875 0,25.3335872 L13.1698196,25.3884297 Z" id="XMLID_1742_"></path>
                        <path d="M18.7417115,-8.8817842e-16 L12.1063138,-8.8817842e-16 L3.53557183,16.7761813 C6.14628933,13.5773729 9.72439742,11.7968294 13.792114,10.3688281 C17.8598306,8.94082673 22.2686564,9.58874492 24.0486562,10.3688281 L18.7417115,-8.8817842e-16 Z" id="XMLID_1522_"></path>
                    </g>
                </g>
                <circle id="椭圆形" stroke="#FFFFFF" opacity="0.45" cx="33.5" cy="33.5" r="33"></circle>
            </g>
        </g>
    </g>
</svg>