<?xml version="1.0" encoding="UTF-8"?>
<svg width="32px" height="32px" viewBox="0 0 32 32" version="1.1" xmlns="http://www.w3.org/2000/svg" xmlns:xlink="http://www.w3.org/1999/xlink">
    <title>icon</title>
    <g id="页面-1" stroke="none" stroke-width="1" fill="none" fill-rule="evenodd">
        <g id="B-平台产品联系我们" transform="translate(-553.000000, -1286.000000)">
            <g id="编组-6" transform="translate(402.000000, 1286.000000)">
                <g id="icon" transform="translate(151.000000, 0.000000)">
                    <rect id="矩形" stroke="#979797" fill="#D8D8D8" opacity="0" x="0" y="0" width="32" height="32"></rect>
                    <g id="编组" transform="translate(4.000000, 4.000000)" fill="#147BD1" fill-rule="nonzero">
                        <path d="M10,3.33333333 C7.24799479,3.33333333 6,4.97598958 6,7.33333333 L7.33333333,7.33333333 C7.37864583,5.66132812 8.46666667,4.70932292 10,4.66666667 C11.3466667,4.70932292 11.9413281,5.44265625 11.9866667,6.68533854 C11.9866667,7.32799479 11.5226562,8.07734375 10.5946615,8.93598958 C9.52533854,9.88 9.33333333,10.5626562 9.33333333,11.3333333 L9.33333333,12.6666667 L10.6666667,12.6666667 L10.6666667,11.3333333 C10.6666667,10.9066667 10.8959896,10.3279948 11.64,9.64265625 C12.7546615,8.65598958 13.3120052,7.67200521 13.3120052,6.68533854 C13.3120052,4.71466146 12.1359896,3.33333333 10,3.33333333 L10,3.33333333 Z M9.33333333,15.3333333 L10.6666667,15.3333333 L10.6666667,14 L9.33333333,14 L9.33333333,15.3333333 Z M20.6666667,11.0773438 L20.6666667,1.8453125 C20.6666667,1.8453125 20.4159896,0 18.6666667,0 L-1.48029737e-15,0 L-1.48029737e-15,19.0773438 C-1.48029737e-15,19.0773438 0.250677083,20.6293229 2.66666667,20.6666667 C5.08265625,20.7040104 10,20.6666667 10,20.6666667 C9.70932292,20.7040104 20.6666667,11.0773438 20.6666667,11.0773438 Z M9.33333333,19.3333333 C9.33333333,19.3333333 3.16533854,19.3146615 2.66666667,19.3333333 C1.12533854,19.3920052 1.33333333,17.8453125 1.33333333,17.8453125 L1.33333333,1.23203125 L18.6666667,1.23203125 C19.5413281,1.23203125 19.3333333,1.96268229 19.3333333,2.46403646 L19.3333333,10.4640365 L9.33333333,19.3333333 Z M23.5893229,14.8240104 L21.2720052,12.6613281 L20.8613281,12.28 L20.4533333,12.6613281 L18.7146615,14.2826823 L12.3413281,20.2266667 L12.2159896,20.3413281 L12.1813542,20.5013281 L11.3333333,24 L15.1813281,23.3013281 L15.3546615,23.2693229 L15.48,23.1546615 L21.8533333,17.210651 L23.5920052,15.5893229 L24.0026823,15.2079948 L23.5893229,14.8240104 L23.5893229,14.8240104 Z M14.7813281,22.2720052 L12.9093229,22.6213281 L13.2826562,20.8746615 L19.1226562,15.429349 L20.6213542,16.8266667 L14.7813281,22.2719792 L14.7813281,22.2720052 Z M21.4426562,16.0613281 L19.9440104,14.6640104 L20.8640104,13.8080208 L22.3626562,15.2053385 L21.4426562,16.0613281 Z" id="形状"></path>
                    </g>
                </g>
            </g>
        </g>
    </g>
</svg>