<?xml version="1.0" encoding="UTF-8"?>
<svg width="39px" height="40px" viewBox="0 0 39 40" version="1.1" xmlns="http://www.w3.org/2000/svg" xmlns:xlink="http://www.w3.org/1999/xlink">
    <title>Product dynamic编组 12</title>
    <g id="页面-1" stroke="none" stroke-width="1" fill="none" fill-rule="evenodd">
        <g id="B-平台产品线产品介绍" transform="translate(-941.000000, -3987.000000)">
            <g id="-产品动态" transform="translate(0.000000, 3819.000000)">
                <g id="编组-13" transform="translate(829.000000, 168.000000)">
                    <g id="编组-12" transform="translate(112.000000, 0.000000)">
                        <path d="M19.3700885,40 C10.051007,40 2.22058424,33.6262942 0.000258593084,25.0003211 L0.931624923,25.0005876 C3.17449976,32.9950441 10.5162823,38.8571429 19.2272314,38.8571429 C27.9381804,38.8571429 35.279963,32.9950441 37.5228378,25.0005876 L38.7399184,25.0003211 C36.5195928,33.6262942 28.68917,40 19.3700885,40 Z M19.3700885,0 C28.6895318,0 36.5202008,6.37420069 38.740177,15.0006836 L37.6007461,15.0000382 C35.4545268,6.85960861 28.0418546,0.857142857 19.2272314,0.857142857 C10.4126082,0.857142857 2.99993592,6.85960861 0.853716625,15.0000382 L-6.26165786e-14,15.0006836 C2.21997619,6.37420069 10.0506452,0 19.3700885,0 Z" id="形状结合" fill="#000000" fill-rule="nonzero" opacity="0.15"></path>
                        <path d="M19.4608648,35 C12.5620389,35 6.75098537,30.3426927 5.00027717,24.0006509 L6.04084406,24.0007456 C7.76218098,29.7833403 13.1190961,34 19.4608648,34 C25.8026335,34 31.1595486,29.7833403 32.8808855,24.0007456 L33.9214524,24.0006509 C32.1707442,30.3426927 26.3596907,35 19.4608648,35 Z M19.4608648,5 C26.3600548,5 32.1713576,9.65779897 33.9217296,16.0003533 L32.881184,16.0002573 C31.160168,10.2171472 25.8030001,6 19.4608648,6 C13.1187294,6 7.76156161,10.2171472 6.04054557,16.0002573 L5,16.0003533 C6.75037197,9.65779897 12.5616748,5 19.4608648,5 Z" id="形状结合" fill="#000000" fill-rule="nonzero" opacity="0.15" transform="translate(19.460865, 20.000000) rotate(-270.000000) translate(-19.460865, -20.000000) "></path>
                        <circle id="椭圆形" fill="#147BD1" cx="19" cy="20" r="8"></circle>
                    </g>
                </g>
            </g>
        </g>
    </g>
</svg>