<?xml version="1.0" encoding="UTF-8"?>
<svg width="48px" height="48px" viewBox="0 0 48 48" version="1.1" xmlns="http://www.w3.org/2000/svg" xmlns:xlink="http://www.w3.org/1999/xlink">
    <title>编组 3</title>
    <g id="页面-1" stroke="none" stroke-width="1" fill="none" fill-rule="evenodd">
        <g id="B-平台产品联系我们" transform="translate(-936.000000, -1818.000000)">
            <g id="编组-7" transform="translate(0.000000, 1550.000000)">
                <g id="编组-4" transform="translate(627.000000, 264.000000)">
                    <g id="编组-3" transform="translate(309.000000, 4.000000)">
                        <circle id="椭圆形" fill="#FFFFFF" opacity="0.3" cx="24" cy="24" r="24"></circle>
                        <circle id="椭圆形" fill="#FFFFFF" cx="24" cy="24" r="20"></circle>
                        <g id="编组" transform="translate(12.000000, 14.000000)" fill="#147BD1" fill-rule="nonzero">
                            <path d="M22.7104597,0.0515368656 C23.408891,-0.18160007 24.1048733,0.410548136 23.9868355,1.1373868 L21.0481347,19.2593749 C20.9969058,19.5755352 20.7943515,19.8466831 20.5057088,19.9854893 C20.2170661,20.1242955 19.8787957,20.1132264 19.599845,19.955847 L11.7770235,15.542898 L8.22217514,17.0646552 C7.93090248,17.1893462 7.59730761,17.1654555 7.32677605,17.0005304 C7.0562445,16.8356054 6.88218987,16.550016 6.85959753,16.2339825 L6.85714863,16.1624741 L6.86302603,12.7707236 L0.498289929,9.18061082 C-0.21728371,8.77653947 -0.141857064,7.73672917 0.59428748,7.42669624 L0.670203925,7.3982888 L22.7104597,0.0515368656 Z M21.7935851,2.42159904 L3.38311452,8.55858581 L8.32502967,11.3459435 C8.60812954,11.5058182 8.79345883,11.7957392 8.81971095,12.1198014 L8.82313945,12.2011054 L8.8187314,14.6779404 L11.4513175,13.5514384 C11.7026063,13.4438544 11.9874181,13.4461627 12.2369302,13.5578056 L12.3182342,13.5989474 L19.3387904,17.5593365 L21.7935851,2.42159904 Z M18.8744757,5.25156789 C19.2007328,5.64314946 19.1721927,6.21948933 18.8088447,6.57692194 L18.7490911,6.6307981 L12.8716895,11.5286327 C12.4679075,11.8619576 11.8733874,11.8188192 11.5219537,11.4306959 C11.17052,11.0425726 11.1864371,10.446702 11.5580903,10.0778941 L11.6178439,10.0240179 L17.4952454,5.12618331 C17.9107835,4.78010436 18.5281574,4.83622927 18.8744757,5.25156789 L18.8744757,5.25156789 Z" id="形状"></path>
                        </g>
                    </g>
                </g>
            </g>
        </g>
    </g>
</svg>