<?xml version="1.0" encoding="UTF-8"?>
<svg width="48px" height="48px" viewBox="0 0 48 48" version="1.1" xmlns="http://www.w3.org/2000/svg" xmlns:xlink="http://www.w3.org/1999/xlink">
    <title>编组 3</title>
    <g id="页面-1" stroke="none" stroke-width="1" fill="none" fill-rule="evenodd">
        <g id="B-平台产品联系我们" transform="translate(-936.000000, -1906.000000)">
            <g id="编组-7" transform="translate(0.000000, 1550.000000)">
                <g id="编组-4" transform="translate(596.000000, 352.000000)">
                    <g id="编组-3" transform="translate(340.000000, 4.000000)">
                        <circle id="椭圆形" fill="#FFFFFF" opacity="0.3" cx="24" cy="24" r="24"></circle>
                        <circle id="椭圆形" fill="#FFFFFF" cx="24" cy="24" r="20"></circle>
                        <g id="编组" transform="translate(12.000000, 14.000000)" fill="#147BD1" fill-rule="nonzero">
                            <path d="M11.6919656,6.34896226 C10.9878692,6.34896226 10.2210562,5.85857599 10.208463,5.07916981 C10.208463,4.29976362 10.9754007,3.80937735 11.6919656,3.80937735 C12.4460607,3.80937735 12.9615087,4.3374185 12.9615087,5.07916981 C12.9615087,5.8335143 12.4335922,6.34896226 11.6919656,6.34896226 Z M6.05969296,6.34896226 C5.34312804,6.34896226 4.57631504,5.85857599 4.57631504,5.07916981 C4.57631504,4.29976362 5.34312804,3.80937735 6.05969296,3.80937735 C6.80144427,3.80937735 7.32948541,4.3374185 7.32948541,5.07916981 C7.32948541,5.8335143 6.80144427,6.34896226 6.05969296,6.34896226 Z" id="形状"></path>
                            <path d="M21.1459594,19.8009819 C21.0453386,19.8009819 20.9321246,19.7756708 20.8442216,19.7254228 L18.8577396,18.6318103 C18.0783334,18.8204587 17.3116451,18.9963893 16.5318648,18.9963893 C13.4643635,18.9963893 10.7237863,17.374611 9.59226953,14.9231784 C9.55461465,14.9357716 9.51683508,14.9357716 9.49177338,14.9357716 C9.22430829,14.9608698 8.95582086,14.9735182 8.68718082,14.9736759 C7.78196743,14.9736759 7.05280931,14.822807 6.21043718,14.6467517 L5.95894745,14.5966283 L3.3439281,15.903951 C3.25602514,15.954199 3.15540432,15.9669169 3.05478349,15.9669169 C2.90403928,15.9669169 2.75304569,15.9167935 2.63995636,15.816048 C2.45143258,15.6524612 2.37587344,15.3761592 2.45143258,15.1372626 L3.10515625,13.1506559 C1.06867548,11.6040627 -1.38428203e-15,9.64276697 -1.38428203e-15,7.48035431 C-1.38428203e-15,3.35677066 3.89728031,1.38428203e-15 8.67458763,1.38428203e-15 C12.8737304,1.38428203e-15 16.6075486,2.61501935 17.3996727,6.08487934 C21.1210224,6.47452009 24,9.25300153 24,12.5091514 C24,14.2189573 23.0319453,15.9411071 21.2844845,17.3744863 L21.7622776,18.971203 C21.8375873,19.2228174 21.7496844,19.4867756 21.5486921,19.650113 C21.435104,19.7507338 21.2842351,19.8009819 21.1459594,19.8009819 Z M18.9332987,17.3242383 C19.0340442,17.3242383 19.1471335,17.3494246 19.2350365,17.3996727 L20.0900018,17.8647479 L19.926415,17.3367068 C19.8509565,17.0816293 19.9409116,16.8064548 20.152469,16.6452035 C21.8121516,15.4007221 22.7171156,13.9422812 22.7171156,12.5217446 C22.7171156,9.70560823 19.8759176,7.31689223 16.5191469,7.31689223 C13.099535,7.31689223 10.3085851,9.65523547 10.3085851,12.5217446 C10.3085851,15.3882536 13.099535,17.7264722 16.5191469,17.7264722 C17.2607736,17.7264722 18.0279606,17.537699 18.7820557,17.3494246 C18.8328026,17.3367068 18.8830506,17.3242383 18.9332987,17.3242383 L18.9332987,17.3242383 Z M8.67458763,1.28238564 C4.58865886,1.28238564 1.25719926,4.07333558 1.25719926,7.4929475 C1.25719926,9.39140193 2.25031561,11.0383666 4.21161129,12.4086552 C4.43778996,12.5721173 4.53841079,12.8613866 4.45050783,13.1252201 L4.12370834,14.0933995 L5.56955607,13.3641167 C5.65745902,13.3264618 5.75807985,13.3011507 5.84610749,13.3011507 C5.88376237,13.3011507 5.93401044,13.3011507 5.97179001,13.3138686 L6.42439671,13.4017716 C7.20380289,13.565483 7.87011975,13.7037587 8.66224381,13.7037587 C8.8257059,13.7037587 9.00176118,13.7037587 9.16509858,13.6907915 C9.07707094,13.3011507 9.03941606,12.8987921 9.03941606,12.5217446 C9.03941606,9.10213263 12.1572902,6.27352781 16.0671637,6.05981765 C15.2623217,3.31911578 12.1445723,1.28238564 8.67458763,1.28238564 Z" id="形状"></path>
                            <path d="M14.3067356,11.7924618 C13.7537574,11.7924618 13.2383095,11.2768891 13.2383095,10.723911 C13.2383095,10.1709328 13.7538821,9.65536016 14.3067356,9.65536016 C15.0863911,9.65536016 15.5766527,10.2087124 15.5766527,10.723911 C15.576528,11.3777593 14.9230537,11.7924618 14.3067356,11.7924618 L14.3067356,11.7924618 Z M18.7321817,11.7924618 C18.1788295,11.7924618 17.6638803,11.2768891 17.6638803,10.723911 C17.6638803,10.1709328 18.1792036,9.65536016 18.7321817,9.65536016 C19.5244305,9.65536016 20.0145674,10.2087124 20.0145674,10.723911 C20.0019742,11.2394836 19.5117126,11.7924618 18.7321817,11.7924618 L18.7321817,11.7924618 Z" id="形状"></path>
                        </g>
                    </g>
                </g>
            </g>
        </g>
    </g>
</svg>