<?xml version="1.0" encoding="UTF-8"?>
<svg width="32px" height="32px" viewBox="0 0 32 32" version="1.1" xmlns="http://www.w3.org/2000/svg" xmlns:xlink="http://www.w3.org/1999/xlink">
    <title>icon</title>
    <g id="页面-1" stroke="none" stroke-width="1" fill="none" fill-rule="evenodd">
        <g id="B-平台产品联系我们" transform="translate(-1191.000000, -1286.000000)">
            <g id="编组-6" transform="translate(402.000000, 1286.000000)">
                <g id="AIF服务邮箱" transform="translate(639.000000, 0.000000)">
                    <g id="icon" transform="translate(150.000000, 0.000000)">
                        <rect id="矩形" stroke="#979797" fill="#D8D8D8" opacity="0" x="0" y="0" width="32" height="32"></rect>
                        <g id="编组" transform="translate(4.000000, 7.000000)" fill="#147BD1" fill-rule="nonzero">
                            <path d="M21.1956,1.20000001 L2.40000002,1.20000001 C2.29800001,1.20000001 2.19840002,1.21260001 2.10300002,1.23719999 L11.2068,10.3404 C11.4410999,10.5746292 11.8209001,10.5746292 12.0552,10.3404 L21.1956,1.20000001 Z M22.4934,1.59899999 L15.1614,8.931 L22.5564,16.3254 C22.7094,16.1238 22.8,15.8724 22.8,15.6 L22.8,2.39999999 C22.8,2.09219999 22.6842,1.81199998 22.494,1.59899999 L22.4934,1.59899999 Z M21.3336,16.8 L14.3136,9.77939999 L12.9036,11.1894 C12.5660258,11.5270314 12.1081425,11.7167156 11.6307,11.7167156 C11.1532575,11.7167156 10.6953743,11.5270314 10.3578,11.1894 L8.94840001,9.77939999 L1.998,16.731 C2.124,16.7754 2.259,16.8 2.40060001,16.8 L21.3342,16.8 L21.3336,16.8 Z M1.2186,15.8124 L8.09999999,8.93039998 L1.24440002,2.07599999 C1.21489891,2.18147091 1.19999993,2.29048091 1.19999993,2.39999999 L1.19999993,15.6 C1.19999993,15.672 1.206,15.7434 1.2186,15.8124 Z M2.40000002,-7.99360577e-16 L21.6,-7.99360577e-16 C22.2365196,-7.99360577e-16 22.846969,0.252856405 23.2970563,0.702943712 C23.7471436,1.15303102 24,1.76348041 24,2.39999999 L24,15.6 C24,16.2365196 23.7471436,16.846969 23.2970563,17.2970563 C22.846969,17.7471436 22.2365196,18 21.6,18 L2.40000002,18 C1.76348044,18 1.15303104,17.7471436 0.702943732,17.2970563 C0.25285642,16.846969 3.99680289e-16,16.2365196 3.99680289e-16,15.6 L3.99680289e-16,2.39999999 C3.99680289e-16,1.76348041 0.25285642,1.15303102 0.702943732,0.702943712 C1.15303104,0.252856405 1.76348044,-7.99360577e-16 2.40000002,-7.99360577e-16 Z" id="形状"></path>
                        </g>
                    </g>
                </g>
            </g>
        </g>
    </g>
</svg>