<?xml version="1.0" encoding="UTF-8"?>
<svg width="24px" height="48px" viewBox="0 0 24 48" version="1.1" xmlns="http://www.w3.org/2000/svg" xmlns:xlink="http://www.w3.org/1999/xlink">
    <title>Product dynamic编组 19</title>
    <g id="页面-1" stroke="none" stroke-width="1" fill="none" fill-rule="evenodd">
        <g id="B-平台产品线产品介绍" transform="translate(-948.000000, -3931.000000)" fill-rule="nonzero">
            <g id="-产品动态" transform="translate(0.000000, 3819.000000)">
                <g id="编组-19" transform="translate(948.000000, 112.000000)">
                    <rect id="矩形" fill="#000000" opacity="0.65" x="9" y="24" width="6" height="24"></rect>
                    <g id="编组" fill="#535353">
                        <path d="M3.51420517,20.3650016 C1.26509339,18.1342576 0,15.0976741 0,11.929911 C0,8.76214795 1.26509339,5.72556447 3.51420517,3.49482041 C8.20036662,-1.16494014 15.7990284,-1.16494014 20.4851898,3.49482041 C22.7346713,5.72561115 24,8.76245257 24,11.930511 C24,15.0985695 22.7346713,18.1354109 20.4851898,20.3662017 L11.9996975,28.8012923 L3.51420517,20.3650016 Z M11.9996975,15.6008375 C13.9879911,15.6008375 15.5998215,13.9890071 15.5998215,12.0007134 C15.5998215,10.0124198 13.9879911,8.40058941 11.9996975,8.40058941 C10.0114039,8.40058941 8.39957346,10.0124198 8.39957346,12.0007134 C8.39957346,13.9890071 10.0114039,15.6008375 11.9996975,15.6008375 Z" id="形状"></path>
                    </g>
                </g>
            </g>
        </g>
    </g>
</svg>