<?xml version="1.0" encoding="UTF-8"?>
<svg width="48px" height="48px" viewBox="0 0 48 48" version="1.1" xmlns="http://www.w3.org/2000/svg" xmlns:xlink="http://www.w3.org/1999/xlink">
    <title>编组 3</title>
    <g id="页面-1" stroke="none" stroke-width="1" fill="none" fill-rule="evenodd">
        <g id="B-平台产品联系我们" transform="translate(-936.000000, -1730.000000)">
            <g id="编组-7" transform="translate(0.000000, 1550.000000)">
                <g id="编组-4" transform="translate(398.000000, 176.000000)">
                    <g id="编组-3" transform="translate(538.000000, 4.000000)">
                        <circle id="椭圆形" fill="#FFFFFF" opacity="0.3" cx="24" cy="24" r="24"></circle>
                        <circle id="椭圆形" fill="#FFFFFF" cx="24" cy="24" r="20"></circle>
                        <g id="编组" transform="translate(12.000000, 14.000000)" fill="#147BD1" fill-rule="nonzero">
                            <path d="M18.7818797,10.578544 C19.2154444,10.7241566 19.6351353,10.9082074 20.0359489,11.1285023 C21.5604474,11.9820048 22.679079,13.207251 23.3803287,14.8076414 C23.8678333,15.9176192 24.0513013,17.0837888 23.9879095,18.292243 C23.9667789,18.6745637 23.7732029,18.9387314 23.4547665,19.0131692 C22.9903156,19.1231609 22.5748332,18.7591096 22.6075024,18.2686968 C22.697325,16.9233745 22.4033729,15.6683438 21.6829157,14.5295431 C20.7227753,13.0098289 19.3572839,12.0578967 17.5926564,11.6880527 C17.3193658,11.6308992 17.042229,11.6116917 16.7679769,11.5689146 C16.4577019,11.5194535 16.2165645,11.2653939 16.1935108,10.9685337 C16.1671034,10.6308897 16.3496099,10.3441609 16.661808,10.2432922 C17.4788185,9.97673248 18.1387451,9.48442011 18.6728496,8.82015488 C19.2333615,8.12275144 19.5585287,7.32159467 19.6262592,6.43014623 C19.7218511,5.16791566 19.360661,4.04543783 18.5205967,3.08867451 C17.8789162,2.35717131 17.0763288,1.89511251 16.1296265,1.67993692 C15.7353217,1.59058335 15.3328085,1.57428394 14.9298497,1.5733224 C14.6145286,1.57745906 14.3402118,1.3582413 14.2747074,1.04977145 C14.1863388,0.639120272 14.4836447,0.277461112 14.9327109,0.259191707 C15.7910211,0.225091946 16.6224549,0.360060396 17.4082034,0.708304794 C19.1877466,1.4950149 20.3596855,2.82593749 20.8010828,4.72267222 C21.2679493,6.72217528 20.7621753,8.49834132 19.3798685,10.0194627 C19.2905149,10.1179393 19.1930234,10.2087234 19.0964934,10.2990151 C18.9999399,10.3897758 18.8986022,10.4762447 18.7818797,10.5785675 L18.7818797,10.578544 Z M9.34677596,12.8431762 L10.3040318,14.4714281 C10.7377366,15.2077156 11.1700109,15.9449881 11.6061314,16.6803375 C11.6498466,16.7533447 11.6479235,16.7932138 11.5845083,16.855644 C10.8633183,17.5612316 10.1446234,18.269365 9.42843715,18.980031 C9.36598346,19.0419922 9.33141465,19.0525692 9.26272263,18.9834081 C8.54325846,18.2704247 7.82200167,17.5592525 7.09895909,16.8498982 C7.04804398,16.7999446 7.03169767,16.7663139 7.07302076,16.6956988 C7.81603908,15.4382759 8.55523466,14.1798681 9.29635334,12.9209912 C9.30786846,12.8993916 9.32276072,12.8806531 9.34677596,12.8431762 L9.34677596,12.8431762 Z M18.457674,18.340766 C18.3649902,17.779316 18.2324139,17.2274346 18.0330921,16.6938226 C17.1041902,14.2039068 15.4322231,12.4022715 13.0162996,11.2922938 C12.7683811,11.1809903 12.5154774,11.081142 12.258389,10.9930648 C13.829464,9.98876355 14.8088119,8.59827191 15.0705639,6.75341385 C15.3328085,4.91000983 14.818404,3.27988177 13.5604886,1.91148227 C12.4434063,0.6885778 10.8617586,-0.00560383496 9.20545666,3.40764497e-05 C7.54915475,0.00574097398 5.97229882,0.710739664 4.8636189,1.94126679 C3.66621071,3.26065082 3.16092917,4.83268734 3.37228202,6.60116099 C3.60136487,8.50990334 4.5922514,9.9508176 6.19981828,10.9830038 C6.17195685,11.0190032 6.12777257,11.0233419 6.09029566,11.0358185 C5.85112828,11.1194028 5.61817579,11.2145022 5.38810794,11.3191936 C3.58023428,12.1501115 2.16910454,13.420996 1.15901052,15.1342627 C0.58494156,16.1122648 0.196582349,17.1879492 0.0135024412,18.3071118 C-0.0455975577,18.6572559 0.0912939874,18.9641772 0.385246125,19.0976916 C0.734921118,19.2552447 1.09130349,19.1707223 1.31513301,18.8892703 C1.43232456,18.7422942 1.46257813,18.5669877 1.49618539,18.3931117 C1.8203911,16.7259758 2.57593299,15.2841 3.82470189,14.1327992 C5.90394305,12.2149573 8.35349729,11.5569304 11.1027729,12.2019647 C13.3246515,12.7221385 14.9870031,14.0434456 16.1186039,16.0247027 C16.5777546,16.8287441 16.8491456,17.6995545 17.0182138,18.6063408 C17.0888055,18.9881924 17.477857,19.2312294 17.8774621,19.1587147 C18.2525829,19.0914767 18.5205967,18.7168249 18.457674,18.3407426 L18.457674,18.340766 Z M9.2353537,10.4661744 C8.02503177,10.4689848 6.86355861,9.98900878 6.00831514,9.13259431 C5.15307166,8.27617984 4.67468533,7.11405103 4.67913473,5.9037341 C4.68685831,3.38070355 6.7300766,1.34660823 9.23582275,1.35236528 C11.7468691,1.35814681 13.7886334,3.4032882 13.7872035,5.91095744 C13.7852797,8.42198036 11.7459076,10.4723985 9.23533025,10.4661744 L9.2353537,10.4661744 Z" id="形状"></path>
                        </g>
                    </g>
                </g>
            </g>
        </g>
    </g>
</svg>